M48
; DRILL file {KiCad (6.0.0)} date Thu Nov 17 23:24:05 2022
; FORMAT={-:-/ absolute / inch / decimal}
; #@! TF.CreationDate,2022-11-17T23:24:05+01:00
; #@! TF.GenerationSoftware,Kicad,Pcbnew,(6.0.0)
; #@! TF.FileFunction,Plated,1,2,PTH
FMAT,2
INCH
; #@! TA.AperFunction,Plated,PTH,ComponentDrill
T1C0.0394
%
G90
G05
T1
X4.0551Y-2.9205
X4.0551Y-3.0205
X4.0551Y-3.1205
X4.0551Y-3.2205
X5.2608Y-2.9213
X5.2608Y-3.0213
X5.2608Y-3.1213
X5.2608Y-3.2213
X5.2827Y-4.4488
X5.2835Y-1.6929
X5.3827Y-4.4488
X5.3835Y-1.6929
X5.4827Y-4.4488
X5.4835Y-1.6929
X5.5827Y-4.4488
X5.5835Y-1.6929
X6.811Y-2.9213
X6.811Y-3.0213
X6.811Y-3.1213
X6.811Y-3.2213
T0
M30
