%TF.GenerationSoftware,KiCad,Pcbnew,(6.0.0)*%
%TF.CreationDate,2022-11-17T23:24:07+01:00*%
%TF.ProjectId,Mora,4d6f7261-2e6b-4696-9361-645f70636258,rev?*%
%TF.SameCoordinates,Original*%
%TF.FileFunction,Copper,L2,Bot*%
%TF.FilePolarity,Positive*%
%FSLAX46Y46*%
G04 Gerber Fmt 4.6, Leading zero omitted, Abs format (unit mm)*
G04 Created by KiCad (PCBNEW (6.0.0)) date 2022-11-17 23:24:07*
%MOMM*%
%LPD*%
G01*
G04 APERTURE LIST*
%TA.AperFunction,ComponentPad*%
%ADD10R,1.700000X1.700000*%
%TD*%
%TA.AperFunction,ComponentPad*%
%ADD11O,1.700000X1.700000*%
%TD*%
%TA.AperFunction,Conductor*%
%ADD12C,1.000000*%
%TD*%
G04 APERTURE END LIST*
D10*
%TO.P,M5,1,PWM*%
%TO.N,Net-(M1-Pad1)*%
X134199999Y-43000000D03*
D11*
%TO.P,M5,2,Tacho*%
%TO.N,unconnected-(M5-Pad2)*%
X136739999Y-43000000D03*
%TO.P,M5,3,12V*%
%TO.N,+12V*%
X139279999Y-43000000D03*
%TO.P,M5,4,GND*%
%TO.N,GND*%
X141819999Y-43000000D03*
%TD*%
D10*
%TO.P,M4,1,PWM*%
%TO.N,Net-(M1-Pad1)*%
X102999999Y-81800000D03*
D11*
%TO.P,M4,2,Tacho*%
%TO.N,unconnected-(M4-Pad2)*%
X102999999Y-79260000D03*
%TO.P,M4,3,12V*%
%TO.N,+12V*%
X102999999Y-76720000D03*
%TO.P,M4,4,GND*%
%TO.N,GND*%
X102999999Y-74180000D03*
%TD*%
%TO.P,M3,4,GND*%
%TO.N,GND*%
X134179999Y-113000000D03*
%TO.P,M3,3,12V*%
%TO.N,+12V*%
X136719999Y-113000000D03*
%TO.P,M3,2,Tacho*%
%TO.N,Net-(M1-Pad2)*%
X139259999Y-113000000D03*
D10*
%TO.P,M3,1,PWM*%
%TO.N,Net-(M1-Pad1)*%
X141799999Y-113000000D03*
%TD*%
D11*
%TO.P,M2,4,GND*%
%TO.N,GND*%
X172999999Y-81820000D03*
%TO.P,M2,3,12V*%
%TO.N,+12V*%
X172999999Y-79280000D03*
%TO.P,M2,2,Tacho*%
%TO.N,unconnected-(M2-Pad2)*%
X172999999Y-76740000D03*
D10*
%TO.P,M2,1,PWM*%
%TO.N,Net-(M1-Pad1)*%
X172999999Y-74200000D03*
%TD*%
D11*
%TO.P,M1,4,GND*%
%TO.N,GND*%
X133624999Y-81820000D03*
%TO.P,M1,3,12V*%
%TO.N,+12V*%
X133624999Y-79280000D03*
%TO.P,M1,2,Tacho*%
%TO.N,Net-(M1-Pad2)*%
X133624999Y-76740000D03*
D10*
%TO.P,M1,1,PWM*%
%TO.N,Net-(M1-Pad1)*%
X133624999Y-74200000D03*
%TD*%
D12*
%TO.N,+12V*%
X131064999Y-76720000D02*
X102999999Y-76720000D01*
X131064999Y-76720000D02*
X133624999Y-79280000D01*
X172999999Y-79280000D02*
X133624999Y-79280000D01*
X139279999Y-73625000D02*
X139279999Y-43000000D01*
X133624999Y-79280000D02*
X139279999Y-73625000D01*
X136719999Y-82375000D02*
X133624999Y-79280000D01*
X136719999Y-82375000D02*
X136719999Y-113000000D01*
%TD*%
%TA.AperFunction,Conductor*%
%TO.N,GND*%
G36*
X142470056Y-28509500D02*
G01*
X142484857Y-28511805D01*
X142484860Y-28511805D01*
X142493729Y-28513186D01*
X142506377Y-28511532D01*
X142533691Y-28510948D01*
X142612681Y-28517859D01*
X142661280Y-28522111D01*
X142682903Y-28525923D01*
X142795887Y-28556197D01*
X142828635Y-28564972D01*
X142849274Y-28572484D01*
X142986009Y-28636245D01*
X143005029Y-28647227D01*
X143128617Y-28733764D01*
X143145442Y-28747882D01*
X143252117Y-28854557D01*
X143266235Y-28871382D01*
X143352772Y-28994970D01*
X143363754Y-29013990D01*
X143427515Y-29150725D01*
X143435027Y-29171364D01*
X143474075Y-29317092D01*
X143477889Y-29338722D01*
X143488448Y-29459419D01*
X143487895Y-29475879D01*
X143488304Y-29475884D01*
X143488194Y-29484858D01*
X143486813Y-29493730D01*
X143487977Y-29502632D01*
X143487977Y-29502635D01*
X143490935Y-29525251D01*
X143491999Y-29541589D01*
X143491999Y-69946793D01*
X143490253Y-69967697D01*
X143486928Y-69987461D01*
X143486775Y-70000000D01*
X143487465Y-70004815D01*
X143487626Y-70007290D01*
X143488194Y-70012885D01*
X143489055Y-70027120D01*
X143505734Y-70302858D01*
X143560426Y-70601301D01*
X143650692Y-70890975D01*
X143652254Y-70894445D01*
X143652256Y-70894451D01*
X143712954Y-71029315D01*
X143775216Y-71167656D01*
X143777185Y-71170913D01*
X143777187Y-71170917D01*
X143889782Y-71357171D01*
X143932183Y-71427311D01*
X143934524Y-71430299D01*
X143934526Y-71430302D01*
X143980924Y-71489524D01*
X144119303Y-71666152D01*
X144333847Y-71880696D01*
X144572688Y-72067816D01*
X144638329Y-72107497D01*
X144829082Y-72222812D01*
X144829086Y-72222814D01*
X144832343Y-72224783D01*
X144943885Y-72274984D01*
X145105548Y-72347743D01*
X145105554Y-72347745D01*
X145109024Y-72349307D01*
X145398698Y-72439573D01*
X145697141Y-72494265D01*
X145700932Y-72494494D01*
X145700938Y-72494495D01*
X145878994Y-72505264D01*
X145969212Y-72510721D01*
X145982516Y-72512239D01*
X145987460Y-72513071D01*
X145993937Y-72513150D01*
X145995140Y-72513165D01*
X145995144Y-72513165D01*
X145999999Y-72513224D01*
X146027587Y-72509273D01*
X146045450Y-72508000D01*
X186450671Y-72508000D01*
X186470056Y-72509500D01*
X186484857Y-72511805D01*
X186484860Y-72511805D01*
X186493729Y-72513186D01*
X186506377Y-72511532D01*
X186533691Y-72510948D01*
X186612681Y-72517859D01*
X186661280Y-72522111D01*
X186682903Y-72525923D01*
X186795887Y-72556197D01*
X186828635Y-72564972D01*
X186849274Y-72572484D01*
X186986009Y-72636245D01*
X187005029Y-72647227D01*
X187128617Y-72733764D01*
X187145442Y-72747882D01*
X187252117Y-72854557D01*
X187266235Y-72871382D01*
X187352772Y-72994970D01*
X187363754Y-73013990D01*
X187427515Y-73150725D01*
X187435027Y-73171364D01*
X187470911Y-73305283D01*
X187474075Y-73317092D01*
X187477888Y-73338719D01*
X187481728Y-73382609D01*
X187488448Y-73459419D01*
X187487895Y-73475879D01*
X187488304Y-73475884D01*
X187488194Y-73484858D01*
X187486813Y-73493730D01*
X187487977Y-73502632D01*
X187487977Y-73502635D01*
X187490935Y-73525251D01*
X187491999Y-73541589D01*
X187491999Y-82450672D01*
X187490499Y-82470056D01*
X187486813Y-82493730D01*
X187488453Y-82506270D01*
X187488467Y-82506375D01*
X187489051Y-82533692D01*
X187477889Y-82661278D01*
X187474076Y-82682904D01*
X187469085Y-82701531D01*
X187435027Y-82828636D01*
X187427515Y-82849275D01*
X187363754Y-82986010D01*
X187352772Y-83005030D01*
X187266235Y-83128618D01*
X187252117Y-83145443D01*
X187145442Y-83252118D01*
X187128617Y-83266236D01*
X187005029Y-83352773D01*
X186986009Y-83363755D01*
X186849274Y-83427516D01*
X186828634Y-83435028D01*
X186682903Y-83474077D01*
X186661280Y-83477889D01*
X186617390Y-83481729D01*
X186540580Y-83488449D01*
X186524120Y-83487896D01*
X186524115Y-83488305D01*
X186515141Y-83488195D01*
X186506269Y-83486814D01*
X186497367Y-83487978D01*
X186497364Y-83487978D01*
X186474748Y-83490936D01*
X186458410Y-83492000D01*
X146053206Y-83492000D01*
X146032302Y-83490254D01*
X146024105Y-83488875D01*
X146012538Y-83486929D01*
X146006210Y-83486852D01*
X146004858Y-83486835D01*
X146004854Y-83486835D01*
X145999999Y-83486776D01*
X145995184Y-83487466D01*
X145992709Y-83487627D01*
X145987114Y-83488195D01*
X145700937Y-83505505D01*
X145700931Y-83505506D01*
X145697141Y-83505735D01*
X145398698Y-83560427D01*
X145109024Y-83650693D01*
X145105554Y-83652255D01*
X145105548Y-83652257D01*
X144970684Y-83712955D01*
X144832343Y-83775217D01*
X144829086Y-83777186D01*
X144829082Y-83777188D01*
X144638329Y-83892503D01*
X144572688Y-83932184D01*
X144333847Y-84119304D01*
X144119303Y-84333848D01*
X143992976Y-84495093D01*
X143934526Y-84569698D01*
X143934524Y-84569701D01*
X143932183Y-84572689D01*
X143930216Y-84575943D01*
X143777187Y-84829083D01*
X143777185Y-84829087D01*
X143775216Y-84832344D01*
X143712954Y-84970685D01*
X143689433Y-85022947D01*
X143650692Y-85109025D01*
X143560426Y-85398699D01*
X143505734Y-85697142D01*
X143505505Y-85700933D01*
X143505504Y-85700939D01*
X143489278Y-85969210D01*
X143487760Y-85982517D01*
X143486928Y-85987461D01*
X143486775Y-86000000D01*
X143487465Y-86004815D01*
X143490726Y-86027588D01*
X143491999Y-86045451D01*
X143491999Y-126450672D01*
X143490499Y-126470056D01*
X143486813Y-126493730D01*
X143488453Y-126506270D01*
X143488467Y-126506375D01*
X143489051Y-126533692D01*
X143477889Y-126661278D01*
X143474075Y-126682908D01*
X143435027Y-126828636D01*
X143427515Y-126849275D01*
X143363754Y-126986010D01*
X143352772Y-127005030D01*
X143266235Y-127128618D01*
X143252117Y-127145443D01*
X143145442Y-127252118D01*
X143128617Y-127266236D01*
X143005029Y-127352773D01*
X142986009Y-127363755D01*
X142849274Y-127427516D01*
X142828634Y-127435028D01*
X142682903Y-127474077D01*
X142661280Y-127477889D01*
X142617390Y-127481729D01*
X142540580Y-127488449D01*
X142524120Y-127487896D01*
X142524115Y-127488305D01*
X142515141Y-127488195D01*
X142506269Y-127486814D01*
X142497367Y-127487978D01*
X142497364Y-127487978D01*
X142474748Y-127490936D01*
X142458410Y-127492000D01*
X133549327Y-127492000D01*
X133529942Y-127490500D01*
X133515141Y-127488195D01*
X133515138Y-127488195D01*
X133506269Y-127486814D01*
X133493621Y-127488468D01*
X133466307Y-127489052D01*
X133387317Y-127482141D01*
X133338718Y-127477889D01*
X133317095Y-127474077D01*
X133171364Y-127435028D01*
X133150724Y-127427516D01*
X133013989Y-127363755D01*
X132994969Y-127352773D01*
X132871381Y-127266236D01*
X132854556Y-127252118D01*
X132747881Y-127145443D01*
X132733763Y-127128618D01*
X132647226Y-127005030D01*
X132636244Y-126986010D01*
X132572483Y-126849275D01*
X132564971Y-126828636D01*
X132525923Y-126682908D01*
X132522109Y-126661278D01*
X132511550Y-126540581D01*
X132512103Y-126524121D01*
X132511694Y-126524116D01*
X132511804Y-126515142D01*
X132513185Y-126506270D01*
X132511546Y-126493730D01*
X132509063Y-126474749D01*
X132507999Y-126458411D01*
X132507999Y-113509376D01*
X132921071Y-113509376D01*
X132961769Y-113609603D01*
X132966412Y-113618794D01*
X133077693Y-113800388D01*
X133083776Y-113808699D01*
X133223212Y-113969667D01*
X133230579Y-113976883D01*
X133394433Y-114112916D01*
X133402880Y-114118831D01*
X133586755Y-114226279D01*
X133596042Y-114230729D01*
X133663077Y-114256327D01*
X133677133Y-114257442D01*
X133679999Y-114252290D01*
X133679999Y-113518115D01*
X133675524Y-113502876D01*
X133674134Y-113501671D01*
X133666451Y-113500000D01*
X132935379Y-113500000D01*
X132921848Y-113503973D01*
X132921071Y-113509376D01*
X132507999Y-113509376D01*
X132507999Y-112497513D01*
X132920375Y-112497513D01*
X132924192Y-112500000D01*
X133661884Y-112500000D01*
X133677123Y-112495525D01*
X133678328Y-112494135D01*
X133679999Y-112486452D01*
X133679999Y-111752766D01*
X133676026Y-111739235D01*
X133669044Y-111738231D01*
X133656867Y-111742212D01*
X133647358Y-111746209D01*
X133458462Y-111844542D01*
X133449737Y-111850036D01*
X133279432Y-111977905D01*
X133271725Y-111984748D01*
X133124589Y-112138717D01*
X133118103Y-112146727D01*
X132998097Y-112322649D01*
X132992999Y-112331623D01*
X132922468Y-112483570D01*
X132920375Y-112497513D01*
X132507999Y-112497513D01*
X132507999Y-86053208D01*
X132509745Y-86032304D01*
X132512263Y-86017336D01*
X132513070Y-86012540D01*
X132513223Y-86000001D01*
X132512533Y-85995186D01*
X132512372Y-85992711D01*
X132511804Y-85987116D01*
X132494494Y-85700939D01*
X132494493Y-85700933D01*
X132494264Y-85697143D01*
X132439572Y-85398700D01*
X132433808Y-85380201D01*
X132350439Y-85112662D01*
X132350439Y-85112661D01*
X132349306Y-85109026D01*
X132347742Y-85105549D01*
X132242819Y-84872422D01*
X132224782Y-84832345D01*
X132171890Y-84744850D01*
X132069782Y-84575944D01*
X132067815Y-84572690D01*
X132021107Y-84513071D01*
X131900502Y-84359131D01*
X131880695Y-84333849D01*
X131666151Y-84119305D01*
X131430300Y-83934527D01*
X131430298Y-83934526D01*
X131427310Y-83932185D01*
X131361669Y-83892504D01*
X131170916Y-83777189D01*
X131170912Y-83777187D01*
X131167655Y-83775218D01*
X131029315Y-83712956D01*
X130894450Y-83652258D01*
X130894444Y-83652256D01*
X130890974Y-83650694D01*
X130601300Y-83560428D01*
X130302857Y-83505736D01*
X130299066Y-83505507D01*
X130299060Y-83505506D01*
X130121004Y-83494737D01*
X130030786Y-83489280D01*
X130017482Y-83487762D01*
X130017339Y-83487738D01*
X130017340Y-83487738D01*
X130012538Y-83486930D01*
X130006061Y-83486851D01*
X130004858Y-83486836D01*
X130004854Y-83486836D01*
X129999999Y-83486777D01*
X129975721Y-83490254D01*
X129972411Y-83490728D01*
X129954548Y-83492001D01*
X110590252Y-83492001D01*
X89549327Y-83492000D01*
X89529942Y-83490500D01*
X89515141Y-83488195D01*
X89515138Y-83488195D01*
X89506269Y-83486814D01*
X89493621Y-83488468D01*
X89466307Y-83489052D01*
X89387317Y-83482141D01*
X89338718Y-83477889D01*
X89317095Y-83474077D01*
X89171364Y-83435028D01*
X89150724Y-83427516D01*
X89013989Y-83363755D01*
X88994969Y-83352773D01*
X88871381Y-83266236D01*
X88854556Y-83252118D01*
X88747881Y-83145443D01*
X88733763Y-83128618D01*
X88647226Y-83005030D01*
X88636244Y-82986010D01*
X88572483Y-82849275D01*
X88564971Y-82828636D01*
X88530913Y-82701531D01*
X88525922Y-82682904D01*
X88522109Y-82661278D01*
X88511550Y-82540581D01*
X88512103Y-82524121D01*
X88511694Y-82524116D01*
X88511804Y-82515142D01*
X88513185Y-82506270D01*
X88511546Y-82493730D01*
X88509063Y-82474749D01*
X88507999Y-82458411D01*
X88507999Y-79226695D01*
X101637250Y-79226695D01*
X101637547Y-79231848D01*
X101637547Y-79231851D01*
X101643010Y-79326590D01*
X101650109Y-79449715D01*
X101651246Y-79454761D01*
X101651247Y-79454767D01*
X101671118Y-79542939D01*
X101699221Y-79667639D01*
X101783265Y-79874616D01*
X101899986Y-80065088D01*
X102046249Y-80233938D01*
X102050229Y-80237242D01*
X102054980Y-80241187D01*
X102094615Y-80300090D01*
X102096112Y-80371071D01*
X102058996Y-80431593D01*
X102018723Y-80456112D01*
X101903294Y-80499385D01*
X101786738Y-80586739D01*
X101699384Y-80703295D01*
X101648254Y-80839684D01*
X101641499Y-80901866D01*
X101641499Y-82698134D01*
X101648254Y-82760316D01*
X101699384Y-82896705D01*
X101786738Y-83013261D01*
X101903294Y-83100615D01*
X102039683Y-83151745D01*
X102101865Y-83158500D01*
X103898133Y-83158500D01*
X103960315Y-83151745D01*
X104096704Y-83100615D01*
X104213260Y-83013261D01*
X104300614Y-82896705D01*
X104351744Y-82760316D01*
X104358499Y-82698134D01*
X104358499Y-82329376D01*
X132366071Y-82329376D01*
X132406769Y-82429603D01*
X132411412Y-82438794D01*
X132522693Y-82620388D01*
X132528776Y-82628699D01*
X132668212Y-82789667D01*
X132675579Y-82796883D01*
X132839433Y-82932916D01*
X132847880Y-82938831D01*
X133031755Y-83046279D01*
X133041042Y-83050729D01*
X133108077Y-83076327D01*
X133122133Y-83077442D01*
X133124999Y-83072290D01*
X133124999Y-82338115D01*
X133120524Y-82322876D01*
X133119134Y-82321671D01*
X133111451Y-82320000D01*
X132380379Y-82320000D01*
X132366848Y-82323973D01*
X132366071Y-82329376D01*
X104358499Y-82329376D01*
X104358499Y-80901866D01*
X104351744Y-80839684D01*
X104300614Y-80703295D01*
X104213260Y-80586739D01*
X104096704Y-80499385D01*
X104075436Y-80491412D01*
X103978202Y-80454960D01*
X103921438Y-80412318D01*
X103896738Y-80345756D01*
X103911946Y-80276408D01*
X103933492Y-80247727D01*
X104018025Y-80163489D01*
X104038095Y-80143489D01*
X104097593Y-80060689D01*
X104165434Y-79966277D01*
X104168452Y-79962077D01*
X104257545Y-79781811D01*
X104265135Y-79766453D01*
X104265136Y-79766451D01*
X104267429Y-79761811D01*
X104332369Y-79548069D01*
X104361528Y-79326590D01*
X104362584Y-79283365D01*
X104363073Y-79263365D01*
X104363073Y-79263361D01*
X104363155Y-79260000D01*
X104344851Y-79037361D01*
X104290430Y-78820702D01*
X104201353Y-78615840D01*
X104161905Y-78554862D01*
X104082821Y-78432617D01*
X104082819Y-78432614D01*
X104080013Y-78428277D01*
X103929669Y-78263051D01*
X103925618Y-78259852D01*
X103925614Y-78259848D01*
X103758413Y-78127800D01*
X103758409Y-78127798D01*
X103754358Y-78124598D01*
X103713052Y-78101796D01*
X103663083Y-78051364D01*
X103648311Y-77981921D01*
X103673427Y-77915516D01*
X103700779Y-77888909D01*
X103851820Y-77781173D01*
X103879859Y-77761173D01*
X103882885Y-77758157D01*
X103947587Y-77729570D01*
X103963975Y-77728500D01*
X130595074Y-77728500D01*
X130663195Y-77748502D01*
X130684169Y-77765405D01*
X132234238Y-79315474D01*
X132268264Y-79377786D01*
X132270934Y-79397315D01*
X132275109Y-79469715D01*
X132276246Y-79474761D01*
X132276247Y-79474767D01*
X132296118Y-79562939D01*
X132324221Y-79687639D01*
X132408265Y-79894616D01*
X132524986Y-80085088D01*
X132671249Y-80253938D01*
X132843125Y-80396632D01*
X132901761Y-80430896D01*
X132916954Y-80439774D01*
X132965678Y-80491412D01*
X132978749Y-80561195D01*
X132952018Y-80626967D01*
X132911561Y-80660327D01*
X132903456Y-80664546D01*
X132894737Y-80670036D01*
X132724432Y-80797905D01*
X132716725Y-80804748D01*
X132569589Y-80958717D01*
X132563103Y-80966727D01*
X132443097Y-81142649D01*
X132437999Y-81151623D01*
X132367468Y-81303570D01*
X132365375Y-81317513D01*
X132369192Y-81320000D01*
X133998999Y-81320000D01*
X134067120Y-81340002D01*
X134113613Y-81393658D01*
X134124999Y-81446000D01*
X134124999Y-83069221D01*
X134128972Y-83082752D01*
X134132841Y-83083308D01*
X134133866Y-83082992D01*
X134318094Y-82992739D01*
X134326944Y-82987464D01*
X134500327Y-82863792D01*
X134508199Y-82857139D01*
X134659051Y-82706812D01*
X134665729Y-82698965D01*
X134790002Y-82526020D01*
X134795312Y-82517183D01*
X134889669Y-82326267D01*
X134893465Y-82316680D01*
X134912074Y-82255430D01*
X134951015Y-82196066D01*
X135015869Y-82167178D01*
X135086046Y-82177939D01*
X135121728Y-82202963D01*
X135674594Y-82755829D01*
X135708620Y-82818141D01*
X135711499Y-82844924D01*
X135711499Y-112038381D01*
X135691497Y-112106502D01*
X135676593Y-112125432D01*
X135660628Y-112142138D01*
X135553203Y-112299618D01*
X135552897Y-112300066D01*
X135497986Y-112345069D01*
X135427461Y-112353240D01*
X135363714Y-112321986D01*
X135343017Y-112297502D01*
X135262425Y-112172926D01*
X135256135Y-112164757D01*
X135112805Y-112007240D01*
X135105272Y-112000215D01*
X134938138Y-111868222D01*
X134929551Y-111862517D01*
X134743113Y-111759597D01*
X134733704Y-111755369D01*
X134697075Y-111742398D01*
X134682995Y-111741626D01*
X134679999Y-111747337D01*
X134679999Y-114249221D01*
X134683972Y-114262752D01*
X134687841Y-114263308D01*
X134688866Y-114262992D01*
X134873094Y-114172739D01*
X134881944Y-114167464D01*
X135055327Y-114043792D01*
X135063199Y-114037139D01*
X135214051Y-113886812D01*
X135220729Y-113878965D01*
X135348021Y-113701819D01*
X135349278Y-113702722D01*
X135396372Y-113659362D01*
X135466310Y-113647145D01*
X135531750Y-113674678D01*
X135559578Y-113706511D01*
X135619986Y-113805088D01*
X135766249Y-113973938D01*
X135938125Y-114116632D01*
X136130999Y-114229338D01*
X136339691Y-114309030D01*
X136344759Y-114310061D01*
X136344762Y-114310062D01*
X136452016Y-114331883D01*
X136558596Y-114353567D01*
X136563771Y-114353757D01*
X136563773Y-114353757D01*
X136776672Y-114361564D01*
X136776676Y-114361564D01*
X136781836Y-114361753D01*
X136786956Y-114361097D01*
X136786958Y-114361097D01*
X136998287Y-114334025D01*
X136998288Y-114334025D01*
X137003415Y-114333368D01*
X137008365Y-114331883D01*
X137212428Y-114270661D01*
X137212433Y-114270659D01*
X137217383Y-114269174D01*
X137417993Y-114170896D01*
X137599859Y-114041173D01*
X137758095Y-113883489D01*
X137888452Y-113702077D01*
X137889775Y-113703028D01*
X137936644Y-113659857D01*
X138006579Y-113647625D01*
X138072025Y-113675144D01*
X138099874Y-113706994D01*
X138159986Y-113805088D01*
X138306249Y-113973938D01*
X138478125Y-114116632D01*
X138670999Y-114229338D01*
X138879691Y-114309030D01*
X138884759Y-114310061D01*
X138884762Y-114310062D01*
X138992016Y-114331883D01*
X139098596Y-114353567D01*
X139103771Y-114353757D01*
X139103773Y-114353757D01*
X139316672Y-114361564D01*
X139316676Y-114361564D01*
X139321836Y-114361753D01*
X139326956Y-114361097D01*
X139326958Y-114361097D01*
X139538287Y-114334025D01*
X139538288Y-114334025D01*
X139543415Y-114333368D01*
X139548365Y-114331883D01*
X139752428Y-114270661D01*
X139752433Y-114270659D01*
X139757383Y-114269174D01*
X139957993Y-114170896D01*
X140139859Y-114041173D01*
X140248090Y-113933319D01*
X140310461Y-113899404D01*
X140381267Y-113904592D01*
X140438029Y-113947238D01*
X140455011Y-113978341D01*
X140499384Y-114096705D01*
X140586738Y-114213261D01*
X140703294Y-114300615D01*
X140839683Y-114351745D01*
X140901865Y-114358500D01*
X142698133Y-114358500D01*
X142760315Y-114351745D01*
X142896704Y-114300615D01*
X143013260Y-114213261D01*
X143100614Y-114096705D01*
X143151744Y-113960316D01*
X143158499Y-113898134D01*
X143158499Y-112101866D01*
X143151744Y-112039684D01*
X143100614Y-111903295D01*
X143013260Y-111786739D01*
X142896704Y-111699385D01*
X142760315Y-111648255D01*
X142698133Y-111641500D01*
X140901865Y-111641500D01*
X140839683Y-111648255D01*
X140703294Y-111699385D01*
X140586738Y-111786739D01*
X140499384Y-111903295D01*
X140496232Y-111911703D01*
X140454918Y-112021907D01*
X140412276Y-112078671D01*
X140345715Y-112103371D01*
X140276366Y-112088163D01*
X140243742Y-112062476D01*
X140193150Y-112006875D01*
X140193141Y-112006866D01*
X140189669Y-112003051D01*
X140185618Y-111999852D01*
X140185614Y-111999848D01*
X140018413Y-111867800D01*
X140018409Y-111867798D01*
X140014358Y-111864598D01*
X139978027Y-111844542D01*
X139962135Y-111835769D01*
X139818788Y-111756638D01*
X139813919Y-111754914D01*
X139813915Y-111754912D01*
X139613086Y-111683795D01*
X139613082Y-111683794D01*
X139608211Y-111682069D01*
X139603118Y-111681162D01*
X139603115Y-111681161D01*
X139393372Y-111643800D01*
X139393366Y-111643799D01*
X139388283Y-111642894D01*
X139314451Y-111641992D01*
X139170080Y-111640228D01*
X139170078Y-111640228D01*
X139164910Y-111640165D01*
X138944090Y-111673955D01*
X138731755Y-111743357D01*
X138533606Y-111846507D01*
X138529473Y-111849610D01*
X138529470Y-111849612D01*
X138359099Y-111977530D01*
X138354964Y-111980635D01*
X138329540Y-112007240D01*
X138234683Y-112106502D01*
X138200628Y-112142138D01*
X138093200Y-112299621D01*
X138038292Y-112344621D01*
X137967767Y-112352792D01*
X137904020Y-112321538D01*
X137883323Y-112297054D01*
X137802824Y-112172621D01*
X137802819Y-112172615D01*
X137800013Y-112168277D01*
X137780122Y-112146417D01*
X137761305Y-112125737D01*
X137730253Y-112061891D01*
X137728499Y-112040938D01*
X137728499Y-82436843D01*
X137729236Y-82423236D01*
X137732658Y-82391738D01*
X137732658Y-82391733D01*
X137733323Y-82385612D01*
X137728949Y-82335612D01*
X137728620Y-82330786D01*
X137728551Y-82329376D01*
X171741071Y-82329376D01*
X171781769Y-82429603D01*
X171786412Y-82438794D01*
X171897693Y-82620388D01*
X171903776Y-82628699D01*
X172043212Y-82789667D01*
X172050579Y-82796883D01*
X172214433Y-82932916D01*
X172222880Y-82938831D01*
X172406755Y-83046279D01*
X172416042Y-83050729D01*
X172483077Y-83076327D01*
X172497133Y-83077442D01*
X172499999Y-83072290D01*
X172499999Y-83069221D01*
X173499999Y-83069221D01*
X173503972Y-83082752D01*
X173507841Y-83083308D01*
X173508866Y-83082992D01*
X173693094Y-82992739D01*
X173701944Y-82987464D01*
X173875327Y-82863792D01*
X173883199Y-82857139D01*
X174034051Y-82706812D01*
X174040729Y-82698965D01*
X174165002Y-82526020D01*
X174170312Y-82517183D01*
X174262249Y-82331164D01*
X174262323Y-82323233D01*
X174255415Y-82320000D01*
X173518114Y-82320000D01*
X173502875Y-82324475D01*
X173501670Y-82325865D01*
X173499999Y-82333548D01*
X173499999Y-83069221D01*
X172499999Y-83069221D01*
X172499999Y-82338115D01*
X172495524Y-82322876D01*
X172494134Y-82321671D01*
X172486451Y-82320000D01*
X171755379Y-82320000D01*
X171741848Y-82323973D01*
X171741071Y-82329376D01*
X137728551Y-82329376D01*
X137728499Y-82328314D01*
X137728499Y-82325231D01*
X137727325Y-82313262D01*
X137724309Y-82282494D01*
X137724187Y-82281181D01*
X137720314Y-82236916D01*
X137716086Y-82188587D01*
X137714599Y-82183468D01*
X137714079Y-82178167D01*
X137687208Y-82089166D01*
X137686873Y-82088033D01*
X137662629Y-82004586D01*
X137662627Y-82004582D01*
X137660908Y-81998664D01*
X137658455Y-81993932D01*
X137656915Y-81988831D01*
X137613268Y-81906740D01*
X137612656Y-81905574D01*
X137572728Y-81828547D01*
X137569891Y-81823074D01*
X137566568Y-81818911D01*
X137564065Y-81814204D01*
X137505244Y-81742082D01*
X137504553Y-81741226D01*
X137473261Y-81702027D01*
X137470757Y-81699523D01*
X137470115Y-81698805D01*
X137466414Y-81694472D01*
X137439064Y-81660938D01*
X137403736Y-81631712D01*
X137394957Y-81623723D01*
X136274829Y-80503595D01*
X136240803Y-80441283D01*
X136245868Y-80370468D01*
X136288415Y-80313632D01*
X136354935Y-80288821D01*
X136363924Y-80288500D01*
X172042392Y-80288500D01*
X172110513Y-80308502D01*
X172122876Y-80317555D01*
X172218125Y-80396632D01*
X172276761Y-80430896D01*
X172291954Y-80439774D01*
X172340678Y-80491412D01*
X172353749Y-80561195D01*
X172327018Y-80626967D01*
X172286561Y-80660327D01*
X172278456Y-80664546D01*
X172269737Y-80670036D01*
X172099432Y-80797905D01*
X172091725Y-80804748D01*
X171944589Y-80958717D01*
X171938103Y-80966727D01*
X171818097Y-81142649D01*
X171812999Y-81151623D01*
X171742468Y-81303570D01*
X171740375Y-81317513D01*
X171744192Y-81320000D01*
X174245375Y-81320000D01*
X174258906Y-81316027D01*
X174259616Y-81311089D01*
X174202971Y-81180814D01*
X174198104Y-81171739D01*
X174082425Y-80992926D01*
X174076135Y-80984757D01*
X173932805Y-80827240D01*
X173925272Y-80820215D01*
X173758138Y-80688222D01*
X173749555Y-80682520D01*
X173712601Y-80662120D01*
X173662630Y-80611687D01*
X173647858Y-80542245D01*
X173672974Y-80475839D01*
X173700326Y-80449232D01*
X173752078Y-80412318D01*
X173879859Y-80321173D01*
X173887427Y-80313632D01*
X174034434Y-80167137D01*
X174038095Y-80163489D01*
X174052467Y-80143489D01*
X174165434Y-79986277D01*
X174168452Y-79982077D01*
X174180630Y-79957438D01*
X174265135Y-79786453D01*
X174265136Y-79786451D01*
X174267429Y-79781811D01*
X174332369Y-79568069D01*
X174361528Y-79346590D01*
X174363155Y-79280000D01*
X174344851Y-79057361D01*
X174290430Y-78840702D01*
X174201353Y-78635840D01*
X174080013Y-78448277D01*
X173929669Y-78283051D01*
X173925618Y-78279852D01*
X173925614Y-78279848D01*
X173758413Y-78147800D01*
X173758409Y-78147798D01*
X173754358Y-78144598D01*
X173713052Y-78121796D01*
X173663083Y-78071364D01*
X173648311Y-78001921D01*
X173673427Y-77935516D01*
X173700779Y-77908909D01*
X173744602Y-77877650D01*
X173879859Y-77781173D01*
X173912645Y-77748502D01*
X174034434Y-77627137D01*
X174038095Y-77623489D01*
X174097593Y-77540689D01*
X174165434Y-77446277D01*
X174168452Y-77442077D01*
X174267429Y-77241811D01*
X174332369Y-77028069D01*
X174361528Y-76806590D01*
X174363155Y-76740000D01*
X174344851Y-76517361D01*
X174290430Y-76300702D01*
X174201353Y-76095840D01*
X174123432Y-75975392D01*
X174082821Y-75912617D01*
X174082819Y-75912614D01*
X174080013Y-75908277D01*
X174061385Y-75887805D01*
X173932797Y-75746488D01*
X173901745Y-75682642D01*
X173910140Y-75612143D01*
X173955316Y-75557375D01*
X173981760Y-75543706D01*
X174088296Y-75503767D01*
X174096704Y-75500615D01*
X174213260Y-75413261D01*
X174300614Y-75296705D01*
X174351744Y-75160316D01*
X174358499Y-75098134D01*
X174358499Y-73301866D01*
X174351744Y-73239684D01*
X174300614Y-73103295D01*
X174213260Y-72986739D01*
X174096704Y-72899385D01*
X173960315Y-72848255D01*
X173898133Y-72841500D01*
X172101865Y-72841500D01*
X172039683Y-72848255D01*
X171903294Y-72899385D01*
X171786738Y-72986739D01*
X171699384Y-73103295D01*
X171648254Y-73239684D01*
X171641499Y-73301866D01*
X171641499Y-75098134D01*
X171648254Y-75160316D01*
X171699384Y-75296705D01*
X171786738Y-75413261D01*
X171903294Y-75500615D01*
X171911703Y-75503767D01*
X171911704Y-75503768D01*
X172020450Y-75544535D01*
X172077215Y-75587176D01*
X172101915Y-75653738D01*
X172086708Y-75723087D01*
X172067315Y-75749568D01*
X171947463Y-75874986D01*
X171940628Y-75882138D01*
X171814742Y-76066680D01*
X171799002Y-76100590D01*
X171729971Y-76249305D01*
X171720687Y-76269305D01*
X171660988Y-76484570D01*
X171637250Y-76706695D01*
X171637547Y-76711848D01*
X171637547Y-76711851D01*
X171643010Y-76806590D01*
X171650109Y-76929715D01*
X171651246Y-76934761D01*
X171651247Y-76934767D01*
X171671118Y-77022939D01*
X171699221Y-77147639D01*
X171783265Y-77354616D01*
X171899986Y-77545088D01*
X172046249Y-77713938D01*
X172218125Y-77856632D01*
X172257218Y-77879476D01*
X172291444Y-77899476D01*
X172340168Y-77951114D01*
X172353239Y-78020897D01*
X172326508Y-78086669D01*
X172286054Y-78120027D01*
X172273606Y-78126507D01*
X172269473Y-78129610D01*
X172269470Y-78129612D01*
X172114110Y-78246260D01*
X172047625Y-78271166D01*
X172038457Y-78271500D01*
X136363924Y-78271500D01*
X136295803Y-78251498D01*
X136249310Y-78197842D01*
X136239206Y-78127568D01*
X136268700Y-78062988D01*
X136274829Y-78056405D01*
X139949378Y-74381855D01*
X139959521Y-74372753D01*
X139984217Y-74352897D01*
X139989024Y-74349032D01*
X140021291Y-74310578D01*
X140024471Y-74306931D01*
X140026114Y-74305119D01*
X140028308Y-74302925D01*
X140055641Y-74269651D01*
X140056347Y-74268800D01*
X140112194Y-74202244D01*
X140116153Y-74197526D01*
X140118721Y-74192856D01*
X140122102Y-74188739D01*
X140166014Y-74106842D01*
X140166623Y-74105720D01*
X140208465Y-74029611D01*
X140208467Y-74029606D01*
X140211432Y-74024213D01*
X140213043Y-74019135D01*
X140215562Y-74014437D01*
X140242752Y-73925502D01*
X140243135Y-73924272D01*
X140269370Y-73841570D01*
X140271234Y-73835694D01*
X140271827Y-73830403D01*
X140273387Y-73825302D01*
X140282794Y-73732689D01*
X140282914Y-73731569D01*
X140288499Y-73681773D01*
X140288499Y-73678244D01*
X140288554Y-73677261D01*
X140289003Y-73671556D01*
X140289051Y-73671089D01*
X140293373Y-73628537D01*
X140289058Y-73582888D01*
X140288499Y-73571031D01*
X140288499Y-43963970D01*
X140308501Y-43895849D01*
X140316459Y-43885120D01*
X140318095Y-43883489D01*
X140448452Y-43702077D01*
X140449639Y-43702930D01*
X140496959Y-43659362D01*
X140566896Y-43647145D01*
X140632337Y-43674678D01*
X140660165Y-43706511D01*
X140717693Y-43800388D01*
X140723776Y-43808699D01*
X140863212Y-43969667D01*
X140870579Y-43976883D01*
X141034433Y-44112916D01*
X141042880Y-44118831D01*
X141226755Y-44226279D01*
X141236042Y-44230729D01*
X141303077Y-44256327D01*
X141317133Y-44257442D01*
X141319999Y-44252290D01*
X141319999Y-44249221D01*
X142319999Y-44249221D01*
X142323972Y-44262752D01*
X142327841Y-44263308D01*
X142328866Y-44262992D01*
X142513094Y-44172739D01*
X142521944Y-44167464D01*
X142695327Y-44043792D01*
X142703199Y-44037139D01*
X142854051Y-43886812D01*
X142860729Y-43878965D01*
X142985002Y-43706020D01*
X142990312Y-43697183D01*
X143082249Y-43511164D01*
X143082323Y-43503233D01*
X143075415Y-43500000D01*
X142338114Y-43500000D01*
X142322875Y-43504475D01*
X142321670Y-43505865D01*
X142319999Y-43513548D01*
X142319999Y-44249221D01*
X141319999Y-44249221D01*
X141319999Y-42481885D01*
X142319999Y-42481885D01*
X142324474Y-42497124D01*
X142325864Y-42498329D01*
X142333547Y-42500000D01*
X143065375Y-42500000D01*
X143078906Y-42496027D01*
X143079616Y-42491089D01*
X143022971Y-42360814D01*
X143018104Y-42351739D01*
X142902425Y-42172926D01*
X142896135Y-42164757D01*
X142752805Y-42007240D01*
X142745272Y-42000215D01*
X142578138Y-41868222D01*
X142569551Y-41862517D01*
X142383113Y-41759597D01*
X142373704Y-41755369D01*
X142337075Y-41742398D01*
X142322995Y-41741626D01*
X142319999Y-41747337D01*
X142319999Y-42481885D01*
X141319999Y-42481885D01*
X141319999Y-41752766D01*
X141316026Y-41739235D01*
X141309044Y-41738231D01*
X141296867Y-41742212D01*
X141287358Y-41746209D01*
X141098462Y-41844542D01*
X141089737Y-41850036D01*
X140919432Y-41977905D01*
X140911725Y-41984748D01*
X140764589Y-42138717D01*
X140758108Y-42146722D01*
X140653497Y-42300074D01*
X140598586Y-42345076D01*
X140528061Y-42353247D01*
X140464314Y-42321993D01*
X140443617Y-42297509D01*
X140362821Y-42172617D01*
X140362819Y-42172614D01*
X140360013Y-42168277D01*
X140209669Y-42003051D01*
X140205618Y-41999852D01*
X140205614Y-41999848D01*
X140038413Y-41867800D01*
X140038409Y-41867798D01*
X140034358Y-41864598D01*
X139998027Y-41844542D01*
X139982135Y-41835769D01*
X139838788Y-41756638D01*
X139833919Y-41754914D01*
X139833915Y-41754912D01*
X139633086Y-41683795D01*
X139633082Y-41683794D01*
X139628211Y-41682069D01*
X139623118Y-41681162D01*
X139623115Y-41681161D01*
X139413372Y-41643800D01*
X139413366Y-41643799D01*
X139408283Y-41642894D01*
X139334451Y-41641992D01*
X139190080Y-41640228D01*
X139190078Y-41640228D01*
X139184910Y-41640165D01*
X138964090Y-41673955D01*
X138751755Y-41743357D01*
X138553606Y-41846507D01*
X138549473Y-41849610D01*
X138549470Y-41849612D01*
X138379099Y-41977530D01*
X138374964Y-41980635D01*
X138371392Y-41984373D01*
X138263728Y-42097037D01*
X138220628Y-42142138D01*
X138113200Y-42299621D01*
X138058292Y-42344621D01*
X137987767Y-42352792D01*
X137924020Y-42321538D01*
X137903323Y-42297054D01*
X137822821Y-42172617D01*
X137822819Y-42172614D01*
X137820013Y-42168277D01*
X137669669Y-42003051D01*
X137665618Y-41999852D01*
X137665614Y-41999848D01*
X137498413Y-41867800D01*
X137498409Y-41867798D01*
X137494358Y-41864598D01*
X137458027Y-41844542D01*
X137442135Y-41835769D01*
X137298788Y-41756638D01*
X137293919Y-41754914D01*
X137293915Y-41754912D01*
X137093086Y-41683795D01*
X137093082Y-41683794D01*
X137088211Y-41682069D01*
X137083118Y-41681162D01*
X137083115Y-41681161D01*
X136873372Y-41643800D01*
X136873366Y-41643799D01*
X136868283Y-41642894D01*
X136794451Y-41641992D01*
X136650080Y-41640228D01*
X136650078Y-41640228D01*
X136644910Y-41640165D01*
X136424090Y-41673955D01*
X136211755Y-41743357D01*
X136013606Y-41846507D01*
X136009473Y-41849610D01*
X136009470Y-41849612D01*
X135839099Y-41977530D01*
X135834964Y-41980635D01*
X135778536Y-42039684D01*
X135754282Y-42065064D01*
X135692758Y-42100494D01*
X135621845Y-42097037D01*
X135564059Y-42055791D01*
X135545206Y-42022243D01*
X135503766Y-41911703D01*
X135500614Y-41903295D01*
X135413260Y-41786739D01*
X135296704Y-41699385D01*
X135160315Y-41648255D01*
X135098133Y-41641500D01*
X133301865Y-41641500D01*
X133239683Y-41648255D01*
X133103294Y-41699385D01*
X132986738Y-41786739D01*
X132899384Y-41903295D01*
X132848254Y-42039684D01*
X132841499Y-42101866D01*
X132841499Y-43898134D01*
X132848254Y-43960316D01*
X132899384Y-44096705D01*
X132986738Y-44213261D01*
X133103294Y-44300615D01*
X133239683Y-44351745D01*
X133301865Y-44358500D01*
X135098133Y-44358500D01*
X135160315Y-44351745D01*
X135296704Y-44300615D01*
X135413260Y-44213261D01*
X135500614Y-44096705D01*
X135522798Y-44037529D01*
X135544597Y-43979382D01*
X135587239Y-43922618D01*
X135653801Y-43897918D01*
X135723149Y-43913126D01*
X135757816Y-43941114D01*
X135786249Y-43973938D01*
X135958125Y-44116632D01*
X136150999Y-44229338D01*
X136359691Y-44309030D01*
X136364759Y-44310061D01*
X136364762Y-44310062D01*
X136472016Y-44331883D01*
X136578596Y-44353567D01*
X136583771Y-44353757D01*
X136583773Y-44353757D01*
X136796672Y-44361564D01*
X136796676Y-44361564D01*
X136801836Y-44361753D01*
X136806956Y-44361097D01*
X136806958Y-44361097D01*
X137018287Y-44334025D01*
X137018288Y-44334025D01*
X137023415Y-44333368D01*
X137028365Y-44331883D01*
X137232428Y-44270661D01*
X137232433Y-44270659D01*
X137237383Y-44269174D01*
X137437993Y-44170896D01*
X137619859Y-44041173D01*
X137778095Y-43883489D01*
X137908452Y-43702077D01*
X137909775Y-43703028D01*
X137956644Y-43659857D01*
X138026579Y-43647625D01*
X138092025Y-43675144D01*
X138119874Y-43706994D01*
X138179986Y-43805088D01*
X138183366Y-43808990D01*
X138240736Y-43875219D01*
X138270219Y-43939804D01*
X138271499Y-43957717D01*
X138271499Y-73155076D01*
X138251497Y-73223197D01*
X138234594Y-73244171D01*
X135124934Y-76353831D01*
X135062622Y-76387857D01*
X134991807Y-76382792D01*
X134934971Y-76340245D01*
X134916626Y-76305465D01*
X134915430Y-76300702D01*
X134826353Y-76095840D01*
X134748432Y-75975392D01*
X134707821Y-75912617D01*
X134707819Y-75912614D01*
X134705013Y-75908277D01*
X134686385Y-75887805D01*
X134557797Y-75746488D01*
X134526745Y-75682642D01*
X134535140Y-75612143D01*
X134580316Y-75557375D01*
X134606760Y-75543706D01*
X134713296Y-75503767D01*
X134721704Y-75500615D01*
X134838260Y-75413261D01*
X134925614Y-75296705D01*
X134976744Y-75160316D01*
X134983499Y-75098134D01*
X134983499Y-73301866D01*
X134976744Y-73239684D01*
X134925614Y-73103295D01*
X134838260Y-72986739D01*
X134721704Y-72899385D01*
X134585315Y-72848255D01*
X134523133Y-72841500D01*
X132726865Y-72841500D01*
X132664683Y-72848255D01*
X132528294Y-72899385D01*
X132411738Y-72986739D01*
X132324384Y-73103295D01*
X132273254Y-73239684D01*
X132266499Y-73301866D01*
X132266499Y-75098134D01*
X132273254Y-75160316D01*
X132324384Y-75296705D01*
X132411738Y-75413261D01*
X132528294Y-75500615D01*
X132536703Y-75503767D01*
X132536704Y-75503768D01*
X132645450Y-75544535D01*
X132702215Y-75587176D01*
X132726915Y-75653738D01*
X132711708Y-75723087D01*
X132692315Y-75749568D01*
X132572463Y-75874986D01*
X132565628Y-75882138D01*
X132439742Y-76066680D01*
X132424002Y-76100590D01*
X132354971Y-76249305D01*
X132345687Y-76269305D01*
X132337173Y-76300006D01*
X132299694Y-76360303D01*
X132235565Y-76390766D01*
X132165147Y-76381722D01*
X132126661Y-76355428D01*
X131821854Y-76050621D01*
X131812752Y-76040478D01*
X131792896Y-76015782D01*
X131789031Y-76010975D01*
X131750577Y-75978708D01*
X131746930Y-75975528D01*
X131745118Y-75973885D01*
X131742924Y-75971691D01*
X131709650Y-75944358D01*
X131708852Y-75943696D01*
X131637525Y-75883846D01*
X131632855Y-75881278D01*
X131628738Y-75877897D01*
X131546913Y-75834023D01*
X131545754Y-75833394D01*
X131469618Y-75791538D01*
X131469610Y-75791535D01*
X131464212Y-75788567D01*
X131459130Y-75786955D01*
X131454436Y-75784438D01*
X131365468Y-75757238D01*
X131364440Y-75756918D01*
X131275693Y-75728765D01*
X131270397Y-75728171D01*
X131265301Y-75726613D01*
X131172742Y-75717210D01*
X131171606Y-75717089D01*
X131137991Y-75713319D01*
X131125269Y-75711892D01*
X131125265Y-75711892D01*
X131121772Y-75711500D01*
X131118245Y-75711500D01*
X131117260Y-75711445D01*
X131111580Y-75710998D01*
X131082174Y-75708011D01*
X131074662Y-75707248D01*
X131074660Y-75707248D01*
X131068537Y-75706626D01*
X131026258Y-75710623D01*
X131022890Y-75710941D01*
X131011032Y-75711500D01*
X103958798Y-75711500D01*
X103890677Y-75691498D01*
X103880706Y-75684382D01*
X103758413Y-75587800D01*
X103758409Y-75587798D01*
X103754358Y-75584598D01*
X103712568Y-75561529D01*
X103662597Y-75511097D01*
X103647825Y-75441654D01*
X103672941Y-75375248D01*
X103700293Y-75348641D01*
X103875327Y-75223792D01*
X103883199Y-75217139D01*
X104034051Y-75066812D01*
X104040729Y-75058965D01*
X104165002Y-74886020D01*
X104170312Y-74877183D01*
X104262249Y-74691164D01*
X104262323Y-74683233D01*
X104255415Y-74680000D01*
X101755379Y-74680000D01*
X101741848Y-74683973D01*
X101741071Y-74689376D01*
X101781769Y-74789603D01*
X101786412Y-74798794D01*
X101897693Y-74980388D01*
X101903776Y-74988699D01*
X102043212Y-75149667D01*
X102050579Y-75156883D01*
X102214433Y-75292916D01*
X102222880Y-75298831D01*
X102291968Y-75339203D01*
X102340692Y-75390842D01*
X102353763Y-75460625D01*
X102327032Y-75526396D01*
X102286583Y-75559752D01*
X102273606Y-75566507D01*
X102269473Y-75569610D01*
X102269470Y-75569612D01*
X102246968Y-75586507D01*
X102094964Y-75700635D01*
X101940628Y-75862138D01*
X101937714Y-75866410D01*
X101937713Y-75866411D01*
X101867230Y-75969735D01*
X101814742Y-76046680D01*
X101720687Y-76249305D01*
X101660988Y-76464570D01*
X101637250Y-76686695D01*
X101637547Y-76691848D01*
X101637547Y-76691851D01*
X101643970Y-76803240D01*
X101650109Y-76909715D01*
X101651246Y-76914761D01*
X101651247Y-76914767D01*
X101675303Y-77021508D01*
X101699221Y-77127639D01*
X101783265Y-77334616D01*
X101899986Y-77525088D01*
X102046249Y-77693938D01*
X102218125Y-77836632D01*
X102252351Y-77856632D01*
X102291444Y-77879476D01*
X102340168Y-77931114D01*
X102353239Y-78000897D01*
X102326508Y-78066669D01*
X102286054Y-78100027D01*
X102273606Y-78106507D01*
X102269473Y-78109610D01*
X102269470Y-78109612D01*
X102151959Y-78197842D01*
X102094964Y-78240635D01*
X101940628Y-78402138D01*
X101937714Y-78406410D01*
X101937713Y-78406411D01*
X101852555Y-78531249D01*
X101814742Y-78586680D01*
X101720687Y-78789305D01*
X101660988Y-79004570D01*
X101637250Y-79226695D01*
X88507999Y-79226695D01*
X88507999Y-73677513D01*
X101740375Y-73677513D01*
X101744192Y-73680000D01*
X102481884Y-73680000D01*
X102497123Y-73675525D01*
X102498328Y-73674135D01*
X102499999Y-73666452D01*
X102499999Y-73661885D01*
X103499999Y-73661885D01*
X103504474Y-73677124D01*
X103505864Y-73678329D01*
X103513547Y-73680000D01*
X104245375Y-73680000D01*
X104258906Y-73676027D01*
X104259616Y-73671089D01*
X104202971Y-73540814D01*
X104198104Y-73531739D01*
X104082425Y-73352926D01*
X104076135Y-73344757D01*
X103932805Y-73187240D01*
X103925272Y-73180215D01*
X103758138Y-73048222D01*
X103749551Y-73042517D01*
X103563113Y-72939597D01*
X103553704Y-72935369D01*
X103517075Y-72922398D01*
X103502995Y-72921626D01*
X103499999Y-72927337D01*
X103499999Y-73661885D01*
X102499999Y-73661885D01*
X102499999Y-72932766D01*
X102496026Y-72919235D01*
X102489044Y-72918231D01*
X102476867Y-72922212D01*
X102467358Y-72926209D01*
X102278462Y-73024542D01*
X102269737Y-73030036D01*
X102099432Y-73157905D01*
X102091725Y-73164748D01*
X101944589Y-73318717D01*
X101938103Y-73326727D01*
X101818097Y-73502649D01*
X101812999Y-73511623D01*
X101742468Y-73663570D01*
X101740375Y-73677513D01*
X88507999Y-73677513D01*
X88507999Y-73549328D01*
X88509499Y-73529943D01*
X88511804Y-73515142D01*
X88511804Y-73515139D01*
X88513185Y-73506270D01*
X88511531Y-73493622D01*
X88510947Y-73466308D01*
X88517858Y-73387318D01*
X88522110Y-73338719D01*
X88525923Y-73317092D01*
X88529088Y-73305283D01*
X88564971Y-73171364D01*
X88572483Y-73150725D01*
X88636244Y-73013990D01*
X88647226Y-72994970D01*
X88733763Y-72871382D01*
X88747881Y-72854557D01*
X88854556Y-72747882D01*
X88871381Y-72733764D01*
X88994969Y-72647227D01*
X89013989Y-72636245D01*
X89150724Y-72572484D01*
X89171363Y-72564972D01*
X89204111Y-72556197D01*
X89317095Y-72525923D01*
X89338718Y-72522111D01*
X89382608Y-72518271D01*
X89459418Y-72511551D01*
X89475878Y-72512104D01*
X89475883Y-72511695D01*
X89484857Y-72511805D01*
X89493729Y-72513186D01*
X89502631Y-72512022D01*
X89502634Y-72512022D01*
X89525250Y-72509064D01*
X89541588Y-72508000D01*
X129946793Y-72508000D01*
X129967697Y-72509746D01*
X129987461Y-72513071D01*
X129993789Y-72513148D01*
X129995141Y-72513165D01*
X129995145Y-72513165D01*
X130000000Y-72513224D01*
X130004815Y-72512534D01*
X130007290Y-72512373D01*
X130012885Y-72511805D01*
X130299062Y-72494495D01*
X130299068Y-72494494D01*
X130302858Y-72494265D01*
X130601301Y-72439573D01*
X130890975Y-72349307D01*
X130894445Y-72347745D01*
X130894451Y-72347743D01*
X131056114Y-72274984D01*
X131167656Y-72224783D01*
X131170913Y-72222814D01*
X131170917Y-72222812D01*
X131361670Y-72107497D01*
X131427311Y-72067816D01*
X131666152Y-71880696D01*
X131880696Y-71666152D01*
X132019075Y-71489524D01*
X132065473Y-71430302D01*
X132065475Y-71430299D01*
X132067816Y-71427311D01*
X132110217Y-71357171D01*
X132222812Y-71170917D01*
X132222814Y-71170913D01*
X132224783Y-71167656D01*
X132287045Y-71029315D01*
X132347743Y-70894451D01*
X132347745Y-70894445D01*
X132349307Y-70890975D01*
X132439573Y-70601301D01*
X132494265Y-70302858D01*
X132499741Y-70212334D01*
X132510721Y-70030790D01*
X132512239Y-70017483D01*
X132512263Y-70017340D01*
X132513071Y-70012539D01*
X132513224Y-70000000D01*
X132509273Y-69972412D01*
X132508000Y-69954549D01*
X132507999Y-29549328D01*
X132509499Y-29529943D01*
X132511804Y-29515142D01*
X132511804Y-29515139D01*
X132513185Y-29506270D01*
X132511531Y-29493622D01*
X132510947Y-29466308D01*
X132522109Y-29338722D01*
X132525923Y-29317092D01*
X132564971Y-29171364D01*
X132572483Y-29150725D01*
X132636244Y-29013990D01*
X132647226Y-28994970D01*
X132733763Y-28871382D01*
X132747881Y-28854557D01*
X132854556Y-28747882D01*
X132871381Y-28733764D01*
X132994969Y-28647227D01*
X133013989Y-28636245D01*
X133150724Y-28572484D01*
X133171363Y-28564972D01*
X133204111Y-28556197D01*
X133317095Y-28525923D01*
X133338718Y-28522111D01*
X133382608Y-28518271D01*
X133459418Y-28511551D01*
X133475878Y-28512104D01*
X133475883Y-28511695D01*
X133484857Y-28511805D01*
X133493729Y-28513186D01*
X133502631Y-28512022D01*
X133502634Y-28512022D01*
X133525250Y-28509064D01*
X133541588Y-28508000D01*
X142450671Y-28508000D01*
X142470056Y-28509500D01*
G37*
%TD.AperFunction*%
%TD*%
M02*
