%TF.GenerationSoftware,KiCad,Pcbnew,(6.0.0)*%
%TF.CreationDate,2022-11-17T23:24:08+01:00*%
%TF.ProjectId,Mora,4d6f7261-2e6b-4696-9361-645f70636258,rev?*%
%TF.SameCoordinates,Original*%
%TF.FileFunction,Legend,Top*%
%TF.FilePolarity,Positive*%
%FSLAX46Y46*%
G04 Gerber Fmt 4.6, Leading zero omitted, Abs format (unit mm)*
G04 Created by KiCad (PCBNEW (6.0.0)) date 2022-11-17 23:24:08*
%MOMM*%
%LPD*%
G01*
G04 APERTURE LIST*
%ADD10C,0.120000*%
G04 APERTURE END LIST*
D10*
%TO.C,M5*%
X132869999Y-41560000D02*
X143149999Y-41560000D01*
X143149999Y-41560000D02*
X143149999Y-38900000D01*
X143149999Y-38900000D02*
X132869999Y-38900000D01*
X132869999Y-38900000D02*
X132869999Y-41560000D01*
X133819999Y-38900000D02*
X133819999Y-32900000D01*
X133819999Y-32900000D02*
X134579999Y-32900000D01*
X134579999Y-32900000D02*
X134579999Y-38900000D01*
X133879999Y-38900000D02*
X133879999Y-32900000D01*
X133999999Y-38900000D02*
X133999999Y-32900000D01*
X134119999Y-38900000D02*
X134119999Y-32900000D01*
X134239999Y-38900000D02*
X134239999Y-32900000D01*
X134359999Y-38900000D02*
X134359999Y-32900000D01*
X134479999Y-38900000D02*
X134479999Y-32900000D01*
X133819999Y-41890000D02*
X133819999Y-41560000D01*
X134579999Y-41890000D02*
X134579999Y-41560000D01*
X135469999Y-41560000D02*
X135469999Y-38900000D01*
X136359999Y-38900000D02*
X136359999Y-32900000D01*
X136359999Y-32900000D02*
X137119999Y-32900000D01*
X137119999Y-32900000D02*
X137119999Y-38900000D01*
X136359999Y-41957071D02*
X136359999Y-41560000D01*
X137119999Y-41957071D02*
X137119999Y-41560000D01*
X138009999Y-41560000D02*
X138009999Y-38900000D01*
X138899999Y-38900000D02*
X138899999Y-32900000D01*
X138899999Y-32900000D02*
X139659999Y-32900000D01*
X139659999Y-32900000D02*
X139659999Y-38900000D01*
X138899999Y-41957071D02*
X138899999Y-41560000D01*
X139659999Y-41957071D02*
X139659999Y-41560000D01*
X140549999Y-41560000D02*
X140549999Y-38900000D01*
X141439999Y-38900000D02*
X141439999Y-32900000D01*
X141439999Y-32900000D02*
X142199999Y-32900000D01*
X142199999Y-32900000D02*
X142199999Y-38900000D01*
X141439999Y-41957071D02*
X141439999Y-41560000D01*
X142199999Y-41957071D02*
X142199999Y-41560000D01*
X134199999Y-44270000D02*
X132929999Y-44270000D01*
X132929999Y-44270000D02*
X132929999Y-43000000D01*
%TO.C,M4*%
X101559999Y-83130000D02*
X101559999Y-72850000D01*
X101559999Y-72850000D02*
X98899999Y-72850000D01*
X98899999Y-72850000D02*
X98899999Y-83130000D01*
X98899999Y-83130000D02*
X101559999Y-83130000D01*
X98899999Y-82180000D02*
X92899999Y-82180000D01*
X92899999Y-82180000D02*
X92899999Y-81420000D01*
X92899999Y-81420000D02*
X98899999Y-81420000D01*
X98899999Y-82120000D02*
X92899999Y-82120000D01*
X98899999Y-82000000D02*
X92899999Y-82000000D01*
X98899999Y-81880000D02*
X92899999Y-81880000D01*
X98899999Y-81760000D02*
X92899999Y-81760000D01*
X98899999Y-81640000D02*
X92899999Y-81640000D01*
X98899999Y-81520000D02*
X92899999Y-81520000D01*
X101889999Y-82180000D02*
X101559999Y-82180000D01*
X101889999Y-81420000D02*
X101559999Y-81420000D01*
X101559999Y-80530000D02*
X98899999Y-80530000D01*
X98899999Y-79640000D02*
X92899999Y-79640000D01*
X92899999Y-79640000D02*
X92899999Y-78880000D01*
X92899999Y-78880000D02*
X98899999Y-78880000D01*
X101957070Y-79640000D02*
X101559999Y-79640000D01*
X101957070Y-78880000D02*
X101559999Y-78880000D01*
X101559999Y-77990000D02*
X98899999Y-77990000D01*
X98899999Y-77100000D02*
X92899999Y-77100000D01*
X92899999Y-77100000D02*
X92899999Y-76340000D01*
X92899999Y-76340000D02*
X98899999Y-76340000D01*
X101957070Y-77100000D02*
X101559999Y-77100000D01*
X101957070Y-76340000D02*
X101559999Y-76340000D01*
X101559999Y-75450000D02*
X98899999Y-75450000D01*
X98899999Y-74560000D02*
X92899999Y-74560000D01*
X92899999Y-74560000D02*
X92899999Y-73800000D01*
X92899999Y-73800000D02*
X98899999Y-73800000D01*
X101957070Y-74560000D02*
X101559999Y-74560000D01*
X101957070Y-73800000D02*
X101559999Y-73800000D01*
X104269999Y-81800000D02*
X104269999Y-83070000D01*
X104269999Y-83070000D02*
X102999999Y-83070000D01*
%TO.C,M3*%
X143069999Y-111730000D02*
X143069999Y-113000000D01*
X141799999Y-111730000D02*
X143069999Y-111730000D01*
X133799999Y-114042929D02*
X133799999Y-114440000D01*
X134559999Y-114042929D02*
X134559999Y-114440000D01*
X133799999Y-123100000D02*
X133799999Y-117100000D01*
X134559999Y-123100000D02*
X133799999Y-123100000D01*
X134559999Y-117100000D02*
X134559999Y-123100000D01*
X135449999Y-114440000D02*
X135449999Y-117100000D01*
X136339999Y-114042929D02*
X136339999Y-114440000D01*
X137099999Y-114042929D02*
X137099999Y-114440000D01*
X136339999Y-123100000D02*
X136339999Y-117100000D01*
X137099999Y-123100000D02*
X136339999Y-123100000D01*
X137099999Y-117100000D02*
X137099999Y-123100000D01*
X137989999Y-114440000D02*
X137989999Y-117100000D01*
X138879999Y-114042929D02*
X138879999Y-114440000D01*
X139639999Y-114042929D02*
X139639999Y-114440000D01*
X138879999Y-123100000D02*
X138879999Y-117100000D01*
X139639999Y-123100000D02*
X138879999Y-123100000D01*
X139639999Y-117100000D02*
X139639999Y-123100000D01*
X140529999Y-114440000D02*
X140529999Y-117100000D01*
X141419999Y-114110000D02*
X141419999Y-114440000D01*
X142179999Y-114110000D02*
X142179999Y-114440000D01*
X141519999Y-117100000D02*
X141519999Y-123100000D01*
X141639999Y-117100000D02*
X141639999Y-123100000D01*
X141759999Y-117100000D02*
X141759999Y-123100000D01*
X141879999Y-117100000D02*
X141879999Y-123100000D01*
X141999999Y-117100000D02*
X141999999Y-123100000D01*
X142119999Y-117100000D02*
X142119999Y-123100000D01*
X141419999Y-123100000D02*
X141419999Y-117100000D01*
X142179999Y-123100000D02*
X141419999Y-123100000D01*
X142179999Y-117100000D02*
X142179999Y-123100000D01*
X143129999Y-117100000D02*
X143129999Y-114440000D01*
X132849999Y-117100000D02*
X143129999Y-117100000D01*
X132849999Y-114440000D02*
X132849999Y-117100000D01*
X143129999Y-114440000D02*
X132849999Y-114440000D01*
%TO.C,M2*%
X171729999Y-72930000D02*
X172999999Y-72930000D01*
X171729999Y-74200000D02*
X171729999Y-72930000D01*
X174042928Y-82200000D02*
X174439999Y-82200000D01*
X174042928Y-81440000D02*
X174439999Y-81440000D01*
X183099999Y-82200000D02*
X177099999Y-82200000D01*
X183099999Y-81440000D02*
X183099999Y-82200000D01*
X177099999Y-81440000D02*
X183099999Y-81440000D01*
X174439999Y-80550000D02*
X177099999Y-80550000D01*
X174042928Y-79660000D02*
X174439999Y-79660000D01*
X174042928Y-78900000D02*
X174439999Y-78900000D01*
X183099999Y-79660000D02*
X177099999Y-79660000D01*
X183099999Y-78900000D02*
X183099999Y-79660000D01*
X177099999Y-78900000D02*
X183099999Y-78900000D01*
X174439999Y-78010000D02*
X177099999Y-78010000D01*
X174042928Y-77120000D02*
X174439999Y-77120000D01*
X174042928Y-76360000D02*
X174439999Y-76360000D01*
X183099999Y-77120000D02*
X177099999Y-77120000D01*
X183099999Y-76360000D02*
X183099999Y-77120000D01*
X177099999Y-76360000D02*
X183099999Y-76360000D01*
X174439999Y-75470000D02*
X177099999Y-75470000D01*
X174109999Y-74580000D02*
X174439999Y-74580000D01*
X174109999Y-73820000D02*
X174439999Y-73820000D01*
X177099999Y-74480000D02*
X183099999Y-74480000D01*
X177099999Y-74360000D02*
X183099999Y-74360000D01*
X177099999Y-74240000D02*
X183099999Y-74240000D01*
X177099999Y-74120000D02*
X183099999Y-74120000D01*
X177099999Y-74000000D02*
X183099999Y-74000000D01*
X177099999Y-73880000D02*
X183099999Y-73880000D01*
X183099999Y-74580000D02*
X177099999Y-74580000D01*
X183099999Y-73820000D02*
X183099999Y-74580000D01*
X177099999Y-73820000D02*
X183099999Y-73820000D01*
X177099999Y-72870000D02*
X174439999Y-72870000D01*
X177099999Y-83150000D02*
X177099999Y-72870000D01*
X174439999Y-83150000D02*
X177099999Y-83150000D01*
X174439999Y-72870000D02*
X174439999Y-83150000D01*
%TO.C,M1*%
X132354999Y-72930000D02*
X133624999Y-72930000D01*
X132354999Y-74200000D02*
X132354999Y-72930000D01*
X134667928Y-82200000D02*
X135064999Y-82200000D01*
X134667928Y-81440000D02*
X135064999Y-81440000D01*
X143724999Y-82200000D02*
X137724999Y-82200000D01*
X143724999Y-81440000D02*
X143724999Y-82200000D01*
X137724999Y-81440000D02*
X143724999Y-81440000D01*
X135064999Y-80550000D02*
X137724999Y-80550000D01*
X134667928Y-79660000D02*
X135064999Y-79660000D01*
X134667928Y-78900000D02*
X135064999Y-78900000D01*
X143724999Y-79660000D02*
X137724999Y-79660000D01*
X143724999Y-78900000D02*
X143724999Y-79660000D01*
X137724999Y-78900000D02*
X143724999Y-78900000D01*
X135064999Y-78010000D02*
X137724999Y-78010000D01*
X134667928Y-77120000D02*
X135064999Y-77120000D01*
X134667928Y-76360000D02*
X135064999Y-76360000D01*
X143724999Y-77120000D02*
X137724999Y-77120000D01*
X143724999Y-76360000D02*
X143724999Y-77120000D01*
X137724999Y-76360000D02*
X143724999Y-76360000D01*
X135064999Y-75470000D02*
X137724999Y-75470000D01*
X134734999Y-74580000D02*
X135064999Y-74580000D01*
X134734999Y-73820000D02*
X135064999Y-73820000D01*
X137724999Y-74480000D02*
X143724999Y-74480000D01*
X137724999Y-74360000D02*
X143724999Y-74360000D01*
X137724999Y-74240000D02*
X143724999Y-74240000D01*
X137724999Y-74120000D02*
X143724999Y-74120000D01*
X137724999Y-74000000D02*
X143724999Y-74000000D01*
X137724999Y-73880000D02*
X143724999Y-73880000D01*
X143724999Y-74580000D02*
X137724999Y-74580000D01*
X143724999Y-73820000D02*
X143724999Y-74580000D01*
X137724999Y-73820000D02*
X143724999Y-73820000D01*
X137724999Y-72870000D02*
X135064999Y-72870000D01*
X137724999Y-83150000D02*
X137724999Y-72870000D01*
X135064999Y-83150000D02*
X137724999Y-83150000D01*
X135064999Y-72870000D02*
X135064999Y-83150000D01*
%TD*%
M02*
