%TF.GenerationSoftware,KiCad,Pcbnew,(6.0.0)*%
%TF.CreationDate,2022-10-23T17:51:39+02:00*%
%TF.ProjectId,fan splitter,66616e20-7370-46c6-9974-7465722e6b69,rev?*%
%TF.SameCoordinates,Original*%
%TF.FileFunction,Legend,Top*%
%TF.FilePolarity,Positive*%
%FSLAX46Y46*%
G04 Gerber Fmt 4.6, Leading zero omitted, Abs format (unit mm)*
G04 Created by KiCad (PCBNEW (6.0.0)) date 2022-10-23 17:51:39*
%MOMM*%
%LPD*%
G01*
G04 APERTURE LIST*
%ADD10C,0.120000*%
G04 APERTURE END LIST*
D10*
%TO.C,M3*%
X200395000Y-98280000D02*
X200395000Y-105960000D01*
X197735000Y-95680000D02*
X199065000Y-95680000D01*
X197735000Y-105960000D02*
X200395000Y-105960000D01*
X197735000Y-98280000D02*
X200395000Y-98280000D01*
X197735000Y-98280000D02*
X197735000Y-105960000D01*
X197735000Y-97010000D02*
X197735000Y-95680000D01*
%TO.C,M2*%
X340395000Y-98280000D02*
X340395000Y-105960000D01*
X337735000Y-97010000D02*
X337735000Y-95680000D01*
X337735000Y-95680000D02*
X339065000Y-95680000D01*
X337735000Y-98280000D02*
X337735000Y-105960000D01*
X337735000Y-105960000D02*
X340395000Y-105960000D01*
X337735000Y-98280000D02*
X340395000Y-98280000D01*
%TO.C,M4*%
X57735000Y-97010000D02*
X57735000Y-95680000D01*
X57735000Y-105960000D02*
X60395000Y-105960000D01*
X57735000Y-98280000D02*
X57735000Y-105960000D01*
X57735000Y-98280000D02*
X60395000Y-98280000D01*
X60395000Y-98280000D02*
X60395000Y-105960000D01*
X57735000Y-95680000D02*
X59065000Y-95680000D01*
%TO.C,M1_Horizontal1*%
X350505000Y-103360000D02*
X353165000Y-103360000D01*
X353165000Y-104250000D02*
X359165000Y-104250000D01*
X350107929Y-101710000D02*
X350505000Y-101710000D01*
X353165000Y-97290000D02*
X359165000Y-97290000D01*
X347795000Y-97010000D02*
X347795000Y-95740000D01*
X350175000Y-96630000D02*
X350505000Y-96630000D01*
X350175000Y-97390000D02*
X350505000Y-97390000D01*
X350107929Y-99930000D02*
X350505000Y-99930000D01*
X350505000Y-100820000D02*
X353165000Y-100820000D01*
X353165000Y-95680000D02*
X350505000Y-95680000D01*
X359165000Y-102470000D02*
X353165000Y-102470000D01*
X353165000Y-97050000D02*
X359165000Y-97050000D01*
X353165000Y-105960000D02*
X353165000Y-95680000D01*
X350107929Y-99170000D02*
X350505000Y-99170000D01*
X353165000Y-97170000D02*
X359165000Y-97170000D01*
X353165000Y-96690000D02*
X359165000Y-96690000D01*
X353165000Y-96630000D02*
X359165000Y-96630000D01*
X359165000Y-105010000D02*
X353165000Y-105010000D01*
X359165000Y-96630000D02*
X359165000Y-97390000D01*
X350107929Y-105010000D02*
X350505000Y-105010000D01*
X359165000Y-97390000D02*
X353165000Y-97390000D01*
X353165000Y-99170000D02*
X359165000Y-99170000D01*
X347795000Y-95740000D02*
X349065000Y-95740000D01*
X350505000Y-95680000D02*
X350505000Y-105960000D01*
X359165000Y-101710000D02*
X359165000Y-102470000D01*
X359165000Y-99170000D02*
X359165000Y-99930000D01*
X359165000Y-99930000D02*
X353165000Y-99930000D01*
X359165000Y-104250000D02*
X359165000Y-105010000D01*
X353165000Y-101710000D02*
X359165000Y-101710000D01*
X353165000Y-96810000D02*
X359165000Y-96810000D01*
X350505000Y-98280000D02*
X353165000Y-98280000D01*
X350107929Y-104250000D02*
X350505000Y-104250000D01*
X353165000Y-96930000D02*
X359165000Y-96930000D01*
X350107929Y-102470000D02*
X350505000Y-102470000D01*
X350505000Y-105960000D02*
X353165000Y-105960000D01*
%TD*%
M02*
