M48
; DRILL file {KiCad (6.0.0)} date Sun Oct 23 18:05:15 2022
; FORMAT={-:-/ absolute / inch / decimal}
; #@! TF.CreationDate,2022-10-23T18:05:15+02:00
; #@! TF.GenerationSoftware,Kicad,Pcbnew,(6.0.0)
; #@! TF.FileFunction,Plated,1,2,PTH
FMAT,2
INCH
; #@! TA.AperFunction,Plated,PTH,ViaDrill
T1C0.0157
; #@! TA.AperFunction,Plated,PTH,ComponentDrill
T2C0.0394
%
G90
G05
T1
X2.1758Y-3.7681
X2.1758Y-3.7681
X2.1758Y-4.1697
X2.1758Y-4.1697
X13.5481Y-4.0159
X13.556Y-3.8151
X13.556Y-3.8151
X13.556Y-4.1222
X13.556Y-4.1222
X13.556Y-4.1222
X14.2585Y-3.7681
X14.2585Y-3.7681
X14.2585Y-4.1697
X14.2585Y-4.1697
T2
X2.3254Y-3.8193
X2.3254Y-3.9193
X2.3254Y-4.0193
X2.3254Y-4.1193
X7.8372Y-3.8193
X7.8372Y-3.9193
X7.8372Y-4.0193
X7.8372Y-4.1193
X13.349Y-3.8193
X13.349Y-3.9193
X13.349Y-4.0193
X13.349Y-4.1193
X13.7427Y-3.8193
X13.7427Y-3.9193
X13.7427Y-4.0193
X13.7427Y-4.1193
T0
M30
