%TF.GenerationSoftware,KiCad,Pcbnew,(6.0.0)*%
%TF.CreationDate,2022-11-08T22:37:09+01:00*%
%TF.ProjectId,fan splitter,66616e20-7370-46c6-9974-7465722e6b69,rev?*%
%TF.SameCoordinates,Original*%
%TF.FileFunction,Copper,L1,Top*%
%TF.FilePolarity,Positive*%
%FSLAX46Y46*%
G04 Gerber Fmt 4.6, Leading zero omitted, Abs format (unit mm)*
G04 Created by KiCad (PCBNEW (6.0.0)) date 2022-11-08 22:37:09*
%MOMM*%
%LPD*%
G01*
G04 APERTURE LIST*
%TA.AperFunction,ComponentPad*%
%ADD10R,1.700000X1.700000*%
%TD*%
%TA.AperFunction,ComponentPad*%
%ADD11O,1.700000X1.700000*%
%TD*%
%TA.AperFunction,ViaPad*%
%ADD12C,0.800000*%
%TD*%
%TA.AperFunction,Conductor*%
%ADD13C,1.000000*%
%TD*%
G04 APERTURE END LIST*
D10*
%TO.P,M3,1,-*%
%TO.N,GND*%
X199065000Y-97010000D03*
D11*
%TO.P,M3,2,+*%
%TO.N,Net-(M1_Horizontal1-Pad3)*%
X199065000Y-99550000D03*
%TO.P,M3,3,Tacho*%
%TO.N,unconnected-(M3-Pad3)*%
X199065000Y-102090000D03*
%TO.P,M3,4,PWM*%
%TO.N,Net-(M1_Horizontal1-Pad1)*%
X199065000Y-104630000D03*
%TD*%
D10*
%TO.P,M2,1,-*%
%TO.N,GND*%
X339065000Y-97010000D03*
D11*
%TO.P,M2,2,+*%
%TO.N,Net-(M1_Horizontal1-Pad3)*%
X339065000Y-99550000D03*
%TO.P,M2,3,Tacho*%
%TO.N,Net-(M1_Horizontal1-Pad2)*%
X339065000Y-102090000D03*
%TO.P,M2,4,PWM*%
%TO.N,Net-(M1_Horizontal1-Pad1)*%
X339065000Y-104630000D03*
%TD*%
D10*
%TO.P,M4,1,-*%
%TO.N,GND*%
X59065000Y-97010000D03*
D11*
%TO.P,M4,2,+*%
%TO.N,Net-(M1_Horizontal1-Pad3)*%
X59065000Y-99550000D03*
%TO.P,M4,3,Tacho*%
%TO.N,unconnected-(M4-Pad3)*%
X59065000Y-102090000D03*
%TO.P,M4,4,PWM*%
%TO.N,Net-(M1_Horizontal1-Pad1)*%
X59065000Y-104630000D03*
%TD*%
D10*
%TO.P,M1,1,-*%
%TO.N,GND*%
X99065000Y-97010000D03*
D11*
%TO.P,M1,2,+*%
%TO.N,Net-(M1_Horizontal1-Pad3)*%
X99065000Y-99550000D03*
%TO.P,M1,3,Tacho*%
%TO.N,unconnected-(M1-Pad3)*%
X99065000Y-102090000D03*
%TO.P,M1,4,PWM*%
%TO.N,Net-(M1_Horizontal1-Pad1)*%
X99065000Y-104630000D03*
%TD*%
D10*
%TO.P,M1_Horizontal1,1,PWM*%
%TO.N,Net-(M1_Horizontal1-Pad1)*%
X349065000Y-97010000D03*
D11*
%TO.P,M1_Horizontal1,2,Tacho*%
%TO.N,Net-(M1_Horizontal1-Pad2)*%
X349065000Y-99550000D03*
%TO.P,M1_Horizontal1,3,12V*%
%TO.N,Net-(M1_Horizontal1-Pad3)*%
X349065000Y-102090000D03*
%TO.P,M1_Horizontal1,4,GND*%
%TO.N,GND*%
X349065000Y-104630000D03*
%TD*%
D10*
%TO.P,M5,1,-*%
%TO.N,GND*%
X219065000Y-97010000D03*
D11*
%TO.P,M5,2,+*%
%TO.N,Net-(M1_Horizontal1-Pad3)*%
X219065000Y-99550000D03*
%TO.P,M5,3,Tacho*%
%TO.N,unconnected-(M5-Pad3)*%
X219065000Y-102090000D03*
%TO.P,M5,4,PWM*%
%TO.N,Net-(M1_Horizontal1-Pad1)*%
X219065000Y-104630000D03*
%TD*%
D12*
%TO.N,GND*%
X55265000Y-95710000D03*
X344322107Y-104702893D03*
X362165000Y-95710000D03*
X344322107Y-96902893D03*
X362165000Y-105910000D03*
X344322107Y-104702893D03*
X344322107Y-96902893D03*
X55265000Y-105910000D03*
X362165000Y-105910000D03*
X362165000Y-95710000D03*
X55265000Y-105910000D03*
X55265000Y-95710000D03*
X344322107Y-104702893D03*
%TO.N,Net-(M1_Horizontal1-Pad2)*%
X344122107Y-102002893D03*
%TD*%
D13*
%TO.N,Net-(M1_Horizontal1-Pad3)*%
X339065000Y-99550000D02*
X59065000Y-99550000D01*
X339065000Y-99550000D02*
X344469214Y-99550000D01*
X347009214Y-102090000D02*
X349065000Y-102090000D01*
X344469214Y-99550000D02*
X347009214Y-102090000D01*
%TO.N,Net-(M1_Horizontal1-Pad1)*%
X339065000Y-104630000D02*
X59065000Y-104630000D01*
%TO.N,Net-(M1_Horizontal1-Pad2)*%
X344035000Y-102090000D02*
X344122107Y-102002893D01*
X339065000Y-102090000D02*
X344035000Y-102090000D01*
%TD*%
%TA.AperFunction,Conductor*%
%TO.N,GND*%
G36*
X362135057Y-95219500D02*
G01*
X362149858Y-95221805D01*
X362149862Y-95221805D01*
X362158731Y-95223186D01*
X362167633Y-95222022D01*
X362167637Y-95222022D01*
X362167733Y-95222009D01*
X362198170Y-95221738D01*
X362260375Y-95228746D01*
X362287882Y-95235024D01*
X362365071Y-95262034D01*
X362390491Y-95274276D01*
X362459738Y-95317787D01*
X362481797Y-95335379D01*
X362539621Y-95393203D01*
X362557213Y-95415262D01*
X362600724Y-95484509D01*
X362612966Y-95509930D01*
X362639975Y-95587117D01*
X362646254Y-95614624D01*
X362650466Y-95652001D01*
X362652522Y-95670251D01*
X362653305Y-95685897D01*
X362653196Y-95694855D01*
X362651814Y-95703729D01*
X362653258Y-95714771D01*
X362655936Y-95735250D01*
X362657000Y-95751588D01*
X362657000Y-105860673D01*
X362655500Y-105880057D01*
X362653195Y-105894858D01*
X362653195Y-105894862D01*
X362651814Y-105903731D01*
X362652978Y-105912633D01*
X362652978Y-105912637D01*
X362652991Y-105912733D01*
X362653262Y-105943170D01*
X362646254Y-106005375D01*
X362639975Y-106032885D01*
X362612966Y-106110071D01*
X362600724Y-106135491D01*
X362557213Y-106204738D01*
X362539621Y-106226797D01*
X362481797Y-106284621D01*
X362459738Y-106302213D01*
X362390491Y-106345724D01*
X362365070Y-106357966D01*
X362287883Y-106384975D01*
X362260376Y-106391254D01*
X362236428Y-106393952D01*
X362204744Y-106397522D01*
X362189103Y-106398305D01*
X362180145Y-106398196D01*
X362171271Y-106396814D01*
X362139750Y-106400936D01*
X362123412Y-106402000D01*
X55314327Y-106402000D01*
X55294943Y-106400500D01*
X55280142Y-106398195D01*
X55280138Y-106398195D01*
X55271269Y-106396814D01*
X55262367Y-106397978D01*
X55262363Y-106397978D01*
X55262267Y-106397991D01*
X55231830Y-106398262D01*
X55169625Y-106391254D01*
X55142118Y-106384976D01*
X55064928Y-106357966D01*
X55039509Y-106345724D01*
X54970262Y-106302213D01*
X54948203Y-106284621D01*
X54890379Y-106226797D01*
X54872787Y-106204738D01*
X54829276Y-106135491D01*
X54817034Y-106110070D01*
X54790025Y-106032883D01*
X54783746Y-106005376D01*
X54777478Y-105949749D01*
X54776695Y-105934103D01*
X54776804Y-105925145D01*
X54778186Y-105916271D01*
X54774064Y-105884749D01*
X54773000Y-105868412D01*
X54773000Y-104596695D01*
X57702251Y-104596695D01*
X57702548Y-104601848D01*
X57702548Y-104601851D01*
X57708011Y-104696590D01*
X57715110Y-104819715D01*
X57716247Y-104824761D01*
X57716248Y-104824767D01*
X57736119Y-104912939D01*
X57764222Y-105037639D01*
X57848266Y-105244616D01*
X57850965Y-105249020D01*
X57940245Y-105394712D01*
X57964987Y-105435088D01*
X58111250Y-105603938D01*
X58283126Y-105746632D01*
X58476000Y-105859338D01*
X58480825Y-105861180D01*
X58480826Y-105861181D01*
X58542547Y-105884750D01*
X58684692Y-105939030D01*
X58689760Y-105940061D01*
X58689763Y-105940062D01*
X58797017Y-105961883D01*
X58903597Y-105983567D01*
X58908772Y-105983757D01*
X58908774Y-105983757D01*
X59121673Y-105991564D01*
X59121677Y-105991564D01*
X59126837Y-105991753D01*
X59131957Y-105991097D01*
X59131959Y-105991097D01*
X59343288Y-105964025D01*
X59343289Y-105964025D01*
X59348416Y-105963368D01*
X59353366Y-105961883D01*
X59557429Y-105900661D01*
X59557434Y-105900659D01*
X59562384Y-105899174D01*
X59762994Y-105800896D01*
X59944860Y-105671173D01*
X59947886Y-105668157D01*
X60012588Y-105639570D01*
X60028976Y-105638500D01*
X98107393Y-105638500D01*
X98175514Y-105658502D01*
X98187877Y-105667555D01*
X98283126Y-105746632D01*
X98476000Y-105859338D01*
X98480825Y-105861180D01*
X98480826Y-105861181D01*
X98542547Y-105884750D01*
X98684692Y-105939030D01*
X98689760Y-105940061D01*
X98689763Y-105940062D01*
X98797017Y-105961883D01*
X98903597Y-105983567D01*
X98908772Y-105983757D01*
X98908774Y-105983757D01*
X99121673Y-105991564D01*
X99121677Y-105991564D01*
X99126837Y-105991753D01*
X99131957Y-105991097D01*
X99131959Y-105991097D01*
X99343288Y-105964025D01*
X99343289Y-105964025D01*
X99348416Y-105963368D01*
X99353366Y-105961883D01*
X99557429Y-105900661D01*
X99557434Y-105900659D01*
X99562384Y-105899174D01*
X99762994Y-105800896D01*
X99944860Y-105671173D01*
X99947886Y-105668157D01*
X100012588Y-105639570D01*
X100028976Y-105638500D01*
X198107393Y-105638500D01*
X198175514Y-105658502D01*
X198187877Y-105667555D01*
X198283126Y-105746632D01*
X198476000Y-105859338D01*
X198480825Y-105861180D01*
X198480826Y-105861181D01*
X198542547Y-105884750D01*
X198684692Y-105939030D01*
X198689760Y-105940061D01*
X198689763Y-105940062D01*
X198797017Y-105961883D01*
X198903597Y-105983567D01*
X198908772Y-105983757D01*
X198908774Y-105983757D01*
X199121673Y-105991564D01*
X199121677Y-105991564D01*
X199126837Y-105991753D01*
X199131957Y-105991097D01*
X199131959Y-105991097D01*
X199343288Y-105964025D01*
X199343289Y-105964025D01*
X199348416Y-105963368D01*
X199353366Y-105961883D01*
X199557429Y-105900661D01*
X199557434Y-105900659D01*
X199562384Y-105899174D01*
X199762994Y-105800896D01*
X199944860Y-105671173D01*
X199947886Y-105668157D01*
X200012588Y-105639570D01*
X200028976Y-105638500D01*
X218107393Y-105638500D01*
X218175514Y-105658502D01*
X218187877Y-105667555D01*
X218283126Y-105746632D01*
X218476000Y-105859338D01*
X218480825Y-105861180D01*
X218480826Y-105861181D01*
X218542547Y-105884750D01*
X218684692Y-105939030D01*
X218689760Y-105940061D01*
X218689763Y-105940062D01*
X218797017Y-105961883D01*
X218903597Y-105983567D01*
X218908772Y-105983757D01*
X218908774Y-105983757D01*
X219121673Y-105991564D01*
X219121677Y-105991564D01*
X219126837Y-105991753D01*
X219131957Y-105991097D01*
X219131959Y-105991097D01*
X219343288Y-105964025D01*
X219343289Y-105964025D01*
X219348416Y-105963368D01*
X219353366Y-105961883D01*
X219557429Y-105900661D01*
X219557434Y-105900659D01*
X219562384Y-105899174D01*
X219762994Y-105800896D01*
X219944860Y-105671173D01*
X219947886Y-105668157D01*
X220012588Y-105639570D01*
X220028976Y-105638500D01*
X338107393Y-105638500D01*
X338175514Y-105658502D01*
X338187877Y-105667555D01*
X338283126Y-105746632D01*
X338476000Y-105859338D01*
X338480825Y-105861180D01*
X338480826Y-105861181D01*
X338542547Y-105884750D01*
X338684692Y-105939030D01*
X338689760Y-105940061D01*
X338689763Y-105940062D01*
X338797017Y-105961883D01*
X338903597Y-105983567D01*
X338908772Y-105983757D01*
X338908774Y-105983757D01*
X339121673Y-105991564D01*
X339121677Y-105991564D01*
X339126837Y-105991753D01*
X339131957Y-105991097D01*
X339131959Y-105991097D01*
X339343288Y-105964025D01*
X339343289Y-105964025D01*
X339348416Y-105963368D01*
X339353366Y-105961883D01*
X339557429Y-105900661D01*
X339557434Y-105900659D01*
X339562384Y-105899174D01*
X339762994Y-105800896D01*
X339944860Y-105671173D01*
X339957576Y-105658502D01*
X340099435Y-105517137D01*
X340103096Y-105513489D01*
X340106346Y-105508967D01*
X340195610Y-105384741D01*
X347936290Y-105384741D01*
X347938536Y-105390965D01*
X347962694Y-105430388D01*
X347968777Y-105438699D01*
X348108213Y-105599667D01*
X348115580Y-105606883D01*
X348279434Y-105742916D01*
X348287880Y-105748831D01*
X348299359Y-105755538D01*
X348313045Y-105758934D01*
X348313965Y-105757778D01*
X348315000Y-105752482D01*
X348315000Y-105745071D01*
X349815000Y-105745071D01*
X349818751Y-105757844D01*
X349827284Y-105754424D01*
X349940328Y-105673792D01*
X349948200Y-105667139D01*
X350099051Y-105516813D01*
X350105728Y-105508967D01*
X350187829Y-105394712D01*
X350192216Y-105382208D01*
X350183199Y-105380000D01*
X349833115Y-105380000D01*
X349817876Y-105384475D01*
X349816671Y-105385865D01*
X349815000Y-105393548D01*
X349815000Y-105745071D01*
X348315000Y-105745071D01*
X348315000Y-105398115D01*
X348310525Y-105382876D01*
X348309135Y-105381671D01*
X348301452Y-105380000D01*
X347949931Y-105380000D01*
X347936400Y-105383973D01*
X347936290Y-105384741D01*
X340195610Y-105384741D01*
X340230435Y-105336277D01*
X340233453Y-105332077D01*
X340332430Y-105131811D01*
X340397370Y-104918069D01*
X340426529Y-104696590D01*
X340428156Y-104630000D01*
X340409852Y-104407361D01*
X340355431Y-104190702D01*
X340266354Y-103985840D01*
X340145014Y-103798277D01*
X339994670Y-103633051D01*
X339990619Y-103629852D01*
X339990615Y-103629848D01*
X339823414Y-103497800D01*
X339823410Y-103497798D01*
X339819359Y-103494598D01*
X339778053Y-103471796D01*
X339728084Y-103421364D01*
X339713312Y-103351921D01*
X339738428Y-103285516D01*
X339765780Y-103258909D01*
X339940651Y-103134175D01*
X339944860Y-103131173D01*
X339947886Y-103128157D01*
X340012588Y-103099570D01*
X340028976Y-103098500D01*
X343973157Y-103098500D01*
X343986764Y-103099237D01*
X344018262Y-103102659D01*
X344018267Y-103102659D01*
X344024388Y-103103324D01*
X344050638Y-103101027D01*
X344074388Y-103098950D01*
X344079214Y-103098621D01*
X344081686Y-103098500D01*
X344084769Y-103098500D01*
X344096738Y-103097326D01*
X344127506Y-103094310D01*
X344128819Y-103094188D01*
X344173084Y-103090315D01*
X344221413Y-103086087D01*
X344226532Y-103084600D01*
X344231833Y-103084080D01*
X344320834Y-103057209D01*
X344321967Y-103056874D01*
X344405414Y-103032630D01*
X344405418Y-103032628D01*
X344411336Y-103030909D01*
X344416068Y-103028456D01*
X344421169Y-103026916D01*
X344428173Y-103023192D01*
X344503260Y-102983269D01*
X344504426Y-102982657D01*
X344581453Y-102942729D01*
X344586926Y-102939892D01*
X344591089Y-102936569D01*
X344595796Y-102934066D01*
X344667918Y-102875245D01*
X344668774Y-102874554D01*
X344707973Y-102843262D01*
X344710477Y-102840758D01*
X344711195Y-102840116D01*
X344715528Y-102836415D01*
X344749062Y-102809065D01*
X344761345Y-102794218D01*
X344778290Y-102773734D01*
X344786280Y-102764954D01*
X344870416Y-102680818D01*
X344964210Y-102566632D01*
X345057669Y-102392330D01*
X345115495Y-102203195D01*
X345126993Y-102090000D01*
X345134859Y-102012559D01*
X345134859Y-102012554D01*
X345135481Y-102006431D01*
X345130424Y-101952934D01*
X345143927Y-101883233D01*
X345192969Y-101831897D01*
X345261980Y-101815224D01*
X345329050Y-101838509D01*
X345344960Y-101851981D01*
X346252363Y-102759384D01*
X346261465Y-102769527D01*
X346285182Y-102799025D01*
X346323660Y-102831312D01*
X346327276Y-102834467D01*
X346329102Y-102836123D01*
X346331288Y-102838309D01*
X346333668Y-102840264D01*
X346333678Y-102840273D01*
X346364482Y-102865576D01*
X346365497Y-102866418D01*
X346436688Y-102926154D01*
X346441362Y-102928723D01*
X346445475Y-102932102D01*
X346450912Y-102935017D01*
X346450913Y-102935018D01*
X346527261Y-102975955D01*
X346528391Y-102976568D01*
X346610001Y-103021433D01*
X346615083Y-103023045D01*
X346619777Y-103025562D01*
X346708745Y-103052762D01*
X346709773Y-103053082D01*
X346798520Y-103081235D01*
X346803816Y-103081829D01*
X346808912Y-103083387D01*
X346901471Y-103092790D01*
X346902607Y-103092911D01*
X346936222Y-103096681D01*
X346948944Y-103098108D01*
X346948948Y-103098108D01*
X346952441Y-103098500D01*
X346955968Y-103098500D01*
X346956953Y-103098555D01*
X346962633Y-103099002D01*
X346992039Y-103101989D01*
X346999551Y-103102752D01*
X346999553Y-103102752D01*
X347005676Y-103103374D01*
X347051322Y-103099059D01*
X347063181Y-103098500D01*
X348107393Y-103098500D01*
X348175514Y-103118502D01*
X348187877Y-103127555D01*
X348283126Y-103206632D01*
X348356445Y-103249476D01*
X348356955Y-103249774D01*
X348405679Y-103301412D01*
X348418750Y-103371195D01*
X348392019Y-103436967D01*
X348351562Y-103470327D01*
X348343457Y-103474546D01*
X348334738Y-103480036D01*
X348164433Y-103607905D01*
X348156726Y-103614748D01*
X348009590Y-103768717D01*
X348003104Y-103776727D01*
X347942865Y-103865034D01*
X347938653Y-103878046D01*
X347947076Y-103880000D01*
X350179173Y-103880000D01*
X350192683Y-103876033D01*
X350189877Y-103868544D01*
X350147427Y-103802926D01*
X350141136Y-103794757D01*
X349997806Y-103637240D01*
X349990273Y-103630215D01*
X349823139Y-103498222D01*
X349814556Y-103492520D01*
X349777602Y-103472120D01*
X349727631Y-103421687D01*
X349712859Y-103352245D01*
X349737975Y-103285839D01*
X349765327Y-103259232D01*
X349788797Y-103242491D01*
X349944860Y-103131173D01*
X349957576Y-103118502D01*
X350053219Y-103023192D01*
X350103096Y-102973489D01*
X350127160Y-102940001D01*
X350230435Y-102796277D01*
X350233453Y-102792077D01*
X350288441Y-102680818D01*
X350330136Y-102596453D01*
X350330137Y-102596451D01*
X350332430Y-102591811D01*
X350397370Y-102378069D01*
X350426529Y-102156590D01*
X350428156Y-102090000D01*
X350409852Y-101867361D01*
X350355431Y-101650702D01*
X350266354Y-101445840D01*
X350145014Y-101258277D01*
X349994670Y-101093051D01*
X349990619Y-101089852D01*
X349990615Y-101089848D01*
X349823414Y-100957800D01*
X349823410Y-100957798D01*
X349819359Y-100954598D01*
X349778053Y-100931796D01*
X349728084Y-100881364D01*
X349713312Y-100811921D01*
X349738428Y-100745516D01*
X349765780Y-100718909D01*
X349809603Y-100687650D01*
X349944860Y-100591173D01*
X349957576Y-100578502D01*
X350099435Y-100437137D01*
X350103096Y-100433489D01*
X350162594Y-100350689D01*
X350230435Y-100256277D01*
X350233453Y-100252077D01*
X350332430Y-100051811D01*
X350397370Y-99838069D01*
X350426529Y-99616590D01*
X350428156Y-99550000D01*
X350409852Y-99327361D01*
X350355431Y-99110702D01*
X350266354Y-98905840D01*
X350197712Y-98799735D01*
X350147822Y-98722617D01*
X350147820Y-98722614D01*
X350145014Y-98718277D01*
X350141532Y-98714450D01*
X349997798Y-98556488D01*
X349966746Y-98492642D01*
X349975141Y-98422143D01*
X350020317Y-98367375D01*
X350046761Y-98353706D01*
X350153297Y-98313767D01*
X350161705Y-98310615D01*
X350278261Y-98223261D01*
X350365615Y-98106705D01*
X350416745Y-97970316D01*
X350423500Y-97908134D01*
X350423500Y-96111866D01*
X350416745Y-96049684D01*
X350365615Y-95913295D01*
X350278261Y-95796739D01*
X350161705Y-95709385D01*
X350025316Y-95658255D01*
X349963134Y-95651500D01*
X348166866Y-95651500D01*
X348104684Y-95658255D01*
X347968295Y-95709385D01*
X347851739Y-95796739D01*
X347764385Y-95913295D01*
X347713255Y-96049684D01*
X347706500Y-96111866D01*
X347706500Y-97908134D01*
X347713255Y-97970316D01*
X347764385Y-98106705D01*
X347851739Y-98223261D01*
X347968295Y-98310615D01*
X347976704Y-98313767D01*
X347976705Y-98313768D01*
X348085451Y-98354535D01*
X348142216Y-98397176D01*
X348166916Y-98463738D01*
X348151709Y-98533087D01*
X348132316Y-98559568D01*
X348079351Y-98614993D01*
X348005629Y-98692138D01*
X348002715Y-98696410D01*
X348002714Y-98696411D01*
X347932231Y-98799735D01*
X347879743Y-98876680D01*
X347785688Y-99079305D01*
X347725989Y-99294570D01*
X347702251Y-99516695D01*
X347702548Y-99521848D01*
X347702548Y-99521851D01*
X347708011Y-99616590D01*
X347715110Y-99739715D01*
X347716247Y-99744761D01*
X347716248Y-99744767D01*
X347736119Y-99832939D01*
X347764222Y-99957639D01*
X347848266Y-100164616D01*
X347964987Y-100355088D01*
X348111250Y-100523938D01*
X348283126Y-100666632D01*
X348353595Y-100707811D01*
X348356445Y-100709476D01*
X348405169Y-100761114D01*
X348418240Y-100830897D01*
X348391509Y-100896669D01*
X348351055Y-100930027D01*
X348338607Y-100936507D01*
X348334474Y-100939610D01*
X348334471Y-100939612D01*
X348179111Y-101056260D01*
X348112626Y-101081166D01*
X348103458Y-101081500D01*
X347479138Y-101081500D01*
X347411017Y-101061498D01*
X347390043Y-101044595D01*
X345226069Y-98880621D01*
X345216967Y-98870478D01*
X345197111Y-98845782D01*
X345193246Y-98840975D01*
X345154792Y-98808708D01*
X345151145Y-98805528D01*
X345149333Y-98803885D01*
X345147139Y-98801691D01*
X345113865Y-98774358D01*
X345113067Y-98773696D01*
X345041740Y-98713846D01*
X345037070Y-98711278D01*
X345032953Y-98707897D01*
X344951128Y-98664023D01*
X344949969Y-98663394D01*
X344873833Y-98621538D01*
X344873825Y-98621535D01*
X344868427Y-98618567D01*
X344863345Y-98616955D01*
X344858651Y-98614438D01*
X344769683Y-98587238D01*
X344768655Y-98586918D01*
X344679908Y-98558765D01*
X344674612Y-98558171D01*
X344669516Y-98556613D01*
X344576957Y-98547210D01*
X344575821Y-98547089D01*
X344542206Y-98543319D01*
X344529484Y-98541892D01*
X344529480Y-98541892D01*
X344525987Y-98541500D01*
X344522460Y-98541500D01*
X344521475Y-98541445D01*
X344515795Y-98540998D01*
X344486389Y-98538011D01*
X344478877Y-98537248D01*
X344478875Y-98537248D01*
X344472752Y-98536626D01*
X344430473Y-98540623D01*
X344427105Y-98540941D01*
X344415247Y-98541500D01*
X340228804Y-98541500D01*
X340160683Y-98521498D01*
X340114190Y-98467842D01*
X340104086Y-98397568D01*
X340133580Y-98332988D01*
X340161612Y-98310372D01*
X340161462Y-98310172D01*
X340167057Y-98305979D01*
X340168295Y-98304980D01*
X340168646Y-98304788D01*
X340270724Y-98228285D01*
X340283285Y-98215724D01*
X340359786Y-98113649D01*
X340368324Y-98098054D01*
X340413478Y-97977606D01*
X340417105Y-97962351D01*
X340422631Y-97911486D01*
X340423000Y-97904672D01*
X340423000Y-97778115D01*
X340418525Y-97762876D01*
X340417135Y-97761671D01*
X340409452Y-97760000D01*
X337725116Y-97760000D01*
X337709877Y-97764475D01*
X337708672Y-97765865D01*
X337707001Y-97773548D01*
X337707001Y-97904669D01*
X337707371Y-97911490D01*
X337712895Y-97962352D01*
X337716521Y-97977604D01*
X337761676Y-98098054D01*
X337770214Y-98113649D01*
X337846715Y-98215724D01*
X337859276Y-98228285D01*
X337961354Y-98304788D01*
X337961705Y-98304980D01*
X337961986Y-98305261D01*
X337968538Y-98310172D01*
X337967829Y-98311118D01*
X338011851Y-98355238D01*
X338026865Y-98424629D01*
X338001980Y-98491121D01*
X337945097Y-98533605D01*
X337901196Y-98541500D01*
X220228804Y-98541500D01*
X220160683Y-98521498D01*
X220114190Y-98467842D01*
X220104086Y-98397568D01*
X220133580Y-98332988D01*
X220161612Y-98310372D01*
X220161462Y-98310172D01*
X220167057Y-98305979D01*
X220168295Y-98304980D01*
X220168646Y-98304788D01*
X220270724Y-98228285D01*
X220283285Y-98215724D01*
X220359786Y-98113649D01*
X220368324Y-98098054D01*
X220413478Y-97977606D01*
X220417105Y-97962351D01*
X220422631Y-97911486D01*
X220423000Y-97904672D01*
X220423000Y-97778115D01*
X220418525Y-97762876D01*
X220417135Y-97761671D01*
X220409452Y-97760000D01*
X217725116Y-97760000D01*
X217709877Y-97764475D01*
X217708672Y-97765865D01*
X217707001Y-97773548D01*
X217707001Y-97904669D01*
X217707371Y-97911490D01*
X217712895Y-97962352D01*
X217716521Y-97977604D01*
X217761676Y-98098054D01*
X217770214Y-98113649D01*
X217846715Y-98215724D01*
X217859276Y-98228285D01*
X217961354Y-98304788D01*
X217961705Y-98304980D01*
X217961986Y-98305261D01*
X217968538Y-98310172D01*
X217967829Y-98311118D01*
X218011851Y-98355238D01*
X218026865Y-98424629D01*
X218001980Y-98491121D01*
X217945097Y-98533605D01*
X217901196Y-98541500D01*
X200228804Y-98541500D01*
X200160683Y-98521498D01*
X200114190Y-98467842D01*
X200104086Y-98397568D01*
X200133580Y-98332988D01*
X200161612Y-98310372D01*
X200161462Y-98310172D01*
X200167057Y-98305979D01*
X200168295Y-98304980D01*
X200168646Y-98304788D01*
X200270724Y-98228285D01*
X200283285Y-98215724D01*
X200359786Y-98113649D01*
X200368324Y-98098054D01*
X200413478Y-97977606D01*
X200417105Y-97962351D01*
X200422631Y-97911486D01*
X200423000Y-97904672D01*
X200423000Y-97778115D01*
X200418525Y-97762876D01*
X200417135Y-97761671D01*
X200409452Y-97760000D01*
X197725116Y-97760000D01*
X197709877Y-97764475D01*
X197708672Y-97765865D01*
X197707001Y-97773548D01*
X197707001Y-97904669D01*
X197707371Y-97911490D01*
X197712895Y-97962352D01*
X197716521Y-97977604D01*
X197761676Y-98098054D01*
X197770214Y-98113649D01*
X197846715Y-98215724D01*
X197859276Y-98228285D01*
X197961354Y-98304788D01*
X197961705Y-98304980D01*
X197961986Y-98305261D01*
X197968538Y-98310172D01*
X197967829Y-98311118D01*
X198011851Y-98355238D01*
X198026865Y-98424629D01*
X198001980Y-98491121D01*
X197945097Y-98533605D01*
X197901196Y-98541500D01*
X100228804Y-98541500D01*
X100160683Y-98521498D01*
X100114190Y-98467842D01*
X100104086Y-98397568D01*
X100133580Y-98332988D01*
X100161612Y-98310372D01*
X100161462Y-98310172D01*
X100167057Y-98305979D01*
X100168295Y-98304980D01*
X100168646Y-98304788D01*
X100270724Y-98228285D01*
X100283285Y-98215724D01*
X100359786Y-98113649D01*
X100368324Y-98098054D01*
X100413478Y-97977606D01*
X100417105Y-97962351D01*
X100422631Y-97911486D01*
X100423000Y-97904672D01*
X100423000Y-97778115D01*
X100418525Y-97762876D01*
X100417135Y-97761671D01*
X100409452Y-97760000D01*
X97725116Y-97760000D01*
X97709877Y-97764475D01*
X97708672Y-97765865D01*
X97707001Y-97773548D01*
X97707001Y-97904669D01*
X97707371Y-97911490D01*
X97712895Y-97962352D01*
X97716521Y-97977604D01*
X97761676Y-98098054D01*
X97770214Y-98113649D01*
X97846715Y-98215724D01*
X97859276Y-98228285D01*
X97961354Y-98304788D01*
X97961705Y-98304980D01*
X97961986Y-98305261D01*
X97968538Y-98310172D01*
X97967829Y-98311118D01*
X98011851Y-98355238D01*
X98026865Y-98424629D01*
X98001980Y-98491121D01*
X97945097Y-98533605D01*
X97901196Y-98541500D01*
X60228804Y-98541500D01*
X60160683Y-98521498D01*
X60114190Y-98467842D01*
X60104086Y-98397568D01*
X60133580Y-98332988D01*
X60161612Y-98310372D01*
X60161462Y-98310172D01*
X60167057Y-98305979D01*
X60168295Y-98304980D01*
X60168646Y-98304788D01*
X60270724Y-98228285D01*
X60283285Y-98215724D01*
X60359786Y-98113649D01*
X60368324Y-98098054D01*
X60413478Y-97977606D01*
X60417105Y-97962351D01*
X60422631Y-97911486D01*
X60423000Y-97904672D01*
X60423000Y-97778115D01*
X60418525Y-97762876D01*
X60417135Y-97761671D01*
X60409452Y-97760000D01*
X57725116Y-97760000D01*
X57709877Y-97764475D01*
X57708672Y-97765865D01*
X57707001Y-97773548D01*
X57707001Y-97904669D01*
X57707371Y-97911490D01*
X57712895Y-97962352D01*
X57716521Y-97977604D01*
X57761676Y-98098054D01*
X57770214Y-98113649D01*
X57846715Y-98215724D01*
X57859276Y-98228285D01*
X57961351Y-98304786D01*
X57976946Y-98313324D01*
X58085827Y-98354142D01*
X58142591Y-98396784D01*
X58167291Y-98463345D01*
X58152083Y-98532694D01*
X58132691Y-98559175D01*
X58074987Y-98619559D01*
X58005629Y-98692138D01*
X58002715Y-98696410D01*
X58002714Y-98696411D01*
X57932231Y-98799735D01*
X57879743Y-98876680D01*
X57785688Y-99079305D01*
X57725989Y-99294570D01*
X57702251Y-99516695D01*
X57702548Y-99521848D01*
X57702548Y-99521851D01*
X57708011Y-99616590D01*
X57715110Y-99739715D01*
X57716247Y-99744761D01*
X57716248Y-99744767D01*
X57736119Y-99832939D01*
X57764222Y-99957639D01*
X57848266Y-100164616D01*
X57964987Y-100355088D01*
X58111250Y-100523938D01*
X58283126Y-100666632D01*
X58353595Y-100707811D01*
X58356445Y-100709476D01*
X58405169Y-100761114D01*
X58418240Y-100830897D01*
X58391509Y-100896669D01*
X58351055Y-100930027D01*
X58338607Y-100936507D01*
X58334474Y-100939610D01*
X58334471Y-100939612D01*
X58164320Y-101067365D01*
X58159965Y-101070635D01*
X58005629Y-101232138D01*
X57879743Y-101416680D01*
X57785688Y-101619305D01*
X57725989Y-101834570D01*
X57702251Y-102056695D01*
X57702548Y-102061848D01*
X57702548Y-102061851D01*
X57708011Y-102156590D01*
X57715110Y-102279715D01*
X57716247Y-102284761D01*
X57716248Y-102284767D01*
X57740304Y-102391508D01*
X57764222Y-102497639D01*
X57848266Y-102704616D01*
X57850965Y-102709020D01*
X57929021Y-102836396D01*
X57964987Y-102895088D01*
X58111250Y-103063938D01*
X58283126Y-103206632D01*
X58353595Y-103247811D01*
X58356445Y-103249476D01*
X58405169Y-103301114D01*
X58418240Y-103370897D01*
X58391509Y-103436669D01*
X58351055Y-103470027D01*
X58338607Y-103476507D01*
X58334474Y-103479610D01*
X58334471Y-103479612D01*
X58172134Y-103601498D01*
X58159965Y-103610635D01*
X58005629Y-103772138D01*
X58002715Y-103776410D01*
X58002714Y-103776411D01*
X57990404Y-103794457D01*
X57879743Y-103956680D01*
X57785688Y-104159305D01*
X57725989Y-104374570D01*
X57702251Y-104596695D01*
X54773000Y-104596695D01*
X54773000Y-96241885D01*
X57707000Y-96241885D01*
X57711475Y-96257124D01*
X57712865Y-96258329D01*
X57720548Y-96260000D01*
X58296885Y-96260000D01*
X58312124Y-96255525D01*
X58313329Y-96254135D01*
X58315000Y-96246452D01*
X58315000Y-96241885D01*
X59815000Y-96241885D01*
X59819475Y-96257124D01*
X59820865Y-96258329D01*
X59828548Y-96260000D01*
X60404884Y-96260000D01*
X60420123Y-96255525D01*
X60421328Y-96254135D01*
X60422999Y-96246452D01*
X60422999Y-96241885D01*
X97707000Y-96241885D01*
X97711475Y-96257124D01*
X97712865Y-96258329D01*
X97720548Y-96260000D01*
X98296885Y-96260000D01*
X98312124Y-96255525D01*
X98313329Y-96254135D01*
X98315000Y-96246452D01*
X98315000Y-96241885D01*
X99815000Y-96241885D01*
X99819475Y-96257124D01*
X99820865Y-96258329D01*
X99828548Y-96260000D01*
X100404884Y-96260000D01*
X100420123Y-96255525D01*
X100421328Y-96254135D01*
X100422999Y-96246452D01*
X100422999Y-96241885D01*
X197707000Y-96241885D01*
X197711475Y-96257124D01*
X197712865Y-96258329D01*
X197720548Y-96260000D01*
X198296885Y-96260000D01*
X198312124Y-96255525D01*
X198313329Y-96254135D01*
X198315000Y-96246452D01*
X198315000Y-96241885D01*
X199815000Y-96241885D01*
X199819475Y-96257124D01*
X199820865Y-96258329D01*
X199828548Y-96260000D01*
X200404884Y-96260000D01*
X200420123Y-96255525D01*
X200421328Y-96254135D01*
X200422999Y-96246452D01*
X200422999Y-96241885D01*
X217707000Y-96241885D01*
X217711475Y-96257124D01*
X217712865Y-96258329D01*
X217720548Y-96260000D01*
X218296885Y-96260000D01*
X218312124Y-96255525D01*
X218313329Y-96254135D01*
X218315000Y-96246452D01*
X218315000Y-96241885D01*
X219815000Y-96241885D01*
X219819475Y-96257124D01*
X219820865Y-96258329D01*
X219828548Y-96260000D01*
X220404884Y-96260000D01*
X220420123Y-96255525D01*
X220421328Y-96254135D01*
X220422999Y-96246452D01*
X220422999Y-96241885D01*
X337707000Y-96241885D01*
X337711475Y-96257124D01*
X337712865Y-96258329D01*
X337720548Y-96260000D01*
X338296885Y-96260000D01*
X338312124Y-96255525D01*
X338313329Y-96254135D01*
X338315000Y-96246452D01*
X338315000Y-96241885D01*
X339815000Y-96241885D01*
X339819475Y-96257124D01*
X339820865Y-96258329D01*
X339828548Y-96260000D01*
X340404884Y-96260000D01*
X340420123Y-96255525D01*
X340421328Y-96254135D01*
X340422999Y-96246452D01*
X340422999Y-96115331D01*
X340422629Y-96108510D01*
X340417105Y-96057648D01*
X340413479Y-96042396D01*
X340368324Y-95921946D01*
X340359786Y-95906351D01*
X340283285Y-95804276D01*
X340270724Y-95791715D01*
X340168649Y-95715214D01*
X340153054Y-95706676D01*
X340032606Y-95661522D01*
X340017351Y-95657895D01*
X339966486Y-95652369D01*
X339959672Y-95652000D01*
X339833115Y-95652000D01*
X339817876Y-95656475D01*
X339816671Y-95657865D01*
X339815000Y-95665548D01*
X339815000Y-96241885D01*
X338315000Y-96241885D01*
X338315000Y-95670116D01*
X338310525Y-95654877D01*
X338309135Y-95653672D01*
X338301452Y-95652001D01*
X338170331Y-95652001D01*
X338163510Y-95652371D01*
X338112648Y-95657895D01*
X338097396Y-95661521D01*
X337976946Y-95706676D01*
X337961351Y-95715214D01*
X337859276Y-95791715D01*
X337846715Y-95804276D01*
X337770214Y-95906351D01*
X337761676Y-95921946D01*
X337716522Y-96042394D01*
X337712895Y-96057649D01*
X337707369Y-96108514D01*
X337707000Y-96115328D01*
X337707000Y-96241885D01*
X220422999Y-96241885D01*
X220422999Y-96115331D01*
X220422629Y-96108510D01*
X220417105Y-96057648D01*
X220413479Y-96042396D01*
X220368324Y-95921946D01*
X220359786Y-95906351D01*
X220283285Y-95804276D01*
X220270724Y-95791715D01*
X220168649Y-95715214D01*
X220153054Y-95706676D01*
X220032606Y-95661522D01*
X220017351Y-95657895D01*
X219966486Y-95652369D01*
X219959672Y-95652000D01*
X219833115Y-95652000D01*
X219817876Y-95656475D01*
X219816671Y-95657865D01*
X219815000Y-95665548D01*
X219815000Y-96241885D01*
X218315000Y-96241885D01*
X218315000Y-95670116D01*
X218310525Y-95654877D01*
X218309135Y-95653672D01*
X218301452Y-95652001D01*
X218170331Y-95652001D01*
X218163510Y-95652371D01*
X218112648Y-95657895D01*
X218097396Y-95661521D01*
X217976946Y-95706676D01*
X217961351Y-95715214D01*
X217859276Y-95791715D01*
X217846715Y-95804276D01*
X217770214Y-95906351D01*
X217761676Y-95921946D01*
X217716522Y-96042394D01*
X217712895Y-96057649D01*
X217707369Y-96108514D01*
X217707000Y-96115328D01*
X217707000Y-96241885D01*
X200422999Y-96241885D01*
X200422999Y-96115331D01*
X200422629Y-96108510D01*
X200417105Y-96057648D01*
X200413479Y-96042396D01*
X200368324Y-95921946D01*
X200359786Y-95906351D01*
X200283285Y-95804276D01*
X200270724Y-95791715D01*
X200168649Y-95715214D01*
X200153054Y-95706676D01*
X200032606Y-95661522D01*
X200017351Y-95657895D01*
X199966486Y-95652369D01*
X199959672Y-95652000D01*
X199833115Y-95652000D01*
X199817876Y-95656475D01*
X199816671Y-95657865D01*
X199815000Y-95665548D01*
X199815000Y-96241885D01*
X198315000Y-96241885D01*
X198315000Y-95670116D01*
X198310525Y-95654877D01*
X198309135Y-95653672D01*
X198301452Y-95652001D01*
X198170331Y-95652001D01*
X198163510Y-95652371D01*
X198112648Y-95657895D01*
X198097396Y-95661521D01*
X197976946Y-95706676D01*
X197961351Y-95715214D01*
X197859276Y-95791715D01*
X197846715Y-95804276D01*
X197770214Y-95906351D01*
X197761676Y-95921946D01*
X197716522Y-96042394D01*
X197712895Y-96057649D01*
X197707369Y-96108514D01*
X197707000Y-96115328D01*
X197707000Y-96241885D01*
X100422999Y-96241885D01*
X100422999Y-96115331D01*
X100422629Y-96108510D01*
X100417105Y-96057648D01*
X100413479Y-96042396D01*
X100368324Y-95921946D01*
X100359786Y-95906351D01*
X100283285Y-95804276D01*
X100270724Y-95791715D01*
X100168649Y-95715214D01*
X100153054Y-95706676D01*
X100032606Y-95661522D01*
X100017351Y-95657895D01*
X99966486Y-95652369D01*
X99959672Y-95652000D01*
X99833115Y-95652000D01*
X99817876Y-95656475D01*
X99816671Y-95657865D01*
X99815000Y-95665548D01*
X99815000Y-96241885D01*
X98315000Y-96241885D01*
X98315000Y-95670116D01*
X98310525Y-95654877D01*
X98309135Y-95653672D01*
X98301452Y-95652001D01*
X98170331Y-95652001D01*
X98163510Y-95652371D01*
X98112648Y-95657895D01*
X98097396Y-95661521D01*
X97976946Y-95706676D01*
X97961351Y-95715214D01*
X97859276Y-95791715D01*
X97846715Y-95804276D01*
X97770214Y-95906351D01*
X97761676Y-95921946D01*
X97716522Y-96042394D01*
X97712895Y-96057649D01*
X97707369Y-96108514D01*
X97707000Y-96115328D01*
X97707000Y-96241885D01*
X60422999Y-96241885D01*
X60422999Y-96115331D01*
X60422629Y-96108510D01*
X60417105Y-96057648D01*
X60413479Y-96042396D01*
X60368324Y-95921946D01*
X60359786Y-95906351D01*
X60283285Y-95804276D01*
X60270724Y-95791715D01*
X60168649Y-95715214D01*
X60153054Y-95706676D01*
X60032606Y-95661522D01*
X60017351Y-95657895D01*
X59966486Y-95652369D01*
X59959672Y-95652000D01*
X59833115Y-95652000D01*
X59817876Y-95656475D01*
X59816671Y-95657865D01*
X59815000Y-95665548D01*
X59815000Y-96241885D01*
X58315000Y-96241885D01*
X58315000Y-95670116D01*
X58310525Y-95654877D01*
X58309135Y-95653672D01*
X58301452Y-95652001D01*
X58170331Y-95652001D01*
X58163510Y-95652371D01*
X58112648Y-95657895D01*
X58097396Y-95661521D01*
X57976946Y-95706676D01*
X57961351Y-95715214D01*
X57859276Y-95791715D01*
X57846715Y-95804276D01*
X57770214Y-95906351D01*
X57761676Y-95921946D01*
X57716522Y-96042394D01*
X57712895Y-96057649D01*
X57707369Y-96108514D01*
X57707000Y-96115328D01*
X57707000Y-96241885D01*
X54773000Y-96241885D01*
X54773000Y-95759327D01*
X54774500Y-95739943D01*
X54776805Y-95725142D01*
X54776805Y-95725138D01*
X54778186Y-95716269D01*
X54777022Y-95707367D01*
X54777022Y-95707363D01*
X54777009Y-95707267D01*
X54776738Y-95676830D01*
X54783746Y-95614625D01*
X54790025Y-95587115D01*
X54817034Y-95509929D01*
X54829276Y-95484509D01*
X54872787Y-95415262D01*
X54890379Y-95393203D01*
X54948203Y-95335379D01*
X54970262Y-95317787D01*
X55039509Y-95274276D01*
X55064930Y-95262034D01*
X55142117Y-95235025D01*
X55169624Y-95228746D01*
X55193572Y-95226048D01*
X55225256Y-95222478D01*
X55240897Y-95221695D01*
X55249855Y-95221804D01*
X55258729Y-95223186D01*
X55290251Y-95219064D01*
X55306588Y-95218000D01*
X362115673Y-95218000D01*
X362135057Y-95219500D01*
G37*
%TD.AperFunction*%
%TD*%
%TA.AperFunction,NonConductor*%
G36*
X344067410Y-100578502D02*
G01*
X344088384Y-100595405D01*
X344272184Y-100779205D01*
X344306210Y-100841517D01*
X344301145Y-100912332D01*
X344258598Y-100969168D01*
X344192078Y-100993979D01*
X344169487Y-100993563D01*
X344132719Y-100989569D01*
X343935694Y-101006806D01*
X343929777Y-101008525D01*
X343929772Y-101008526D01*
X343805624Y-101044595D01*
X343745771Y-101061984D01*
X343740304Y-101064818D01*
X343735390Y-101067365D01*
X343677405Y-101081500D01*
X340023799Y-101081500D01*
X339955678Y-101061498D01*
X339945707Y-101054382D01*
X339823414Y-100957800D01*
X339823410Y-100957798D01*
X339819359Y-100954598D01*
X339778053Y-100931796D01*
X339728084Y-100881364D01*
X339713312Y-100811921D01*
X339738428Y-100745516D01*
X339765780Y-100718909D01*
X339940651Y-100594175D01*
X339944860Y-100591173D01*
X339947886Y-100588157D01*
X340012588Y-100559570D01*
X340028976Y-100558500D01*
X343999289Y-100558500D01*
X344067410Y-100578502D01*
G37*
%TD.AperFunction*%
%TA.AperFunction,NonConductor*%
G36*
X218175514Y-100578502D02*
G01*
X218187877Y-100587555D01*
X218283126Y-100666632D01*
X218353595Y-100707811D01*
X218356445Y-100709476D01*
X218405169Y-100761114D01*
X218418240Y-100830897D01*
X218391509Y-100896669D01*
X218351055Y-100930027D01*
X218338607Y-100936507D01*
X218334474Y-100939610D01*
X218334471Y-100939612D01*
X218164320Y-101067365D01*
X218159965Y-101070635D01*
X218005629Y-101232138D01*
X217879743Y-101416680D01*
X217785688Y-101619305D01*
X217725989Y-101834570D01*
X217702251Y-102056695D01*
X217702548Y-102061848D01*
X217702548Y-102061851D01*
X217708011Y-102156590D01*
X217715110Y-102279715D01*
X217716247Y-102284761D01*
X217716248Y-102284767D01*
X217740304Y-102391508D01*
X217764222Y-102497639D01*
X217848266Y-102704616D01*
X217850965Y-102709020D01*
X217929021Y-102836396D01*
X217964987Y-102895088D01*
X218111250Y-103063938D01*
X218283126Y-103206632D01*
X218353595Y-103247811D01*
X218356445Y-103249476D01*
X218405169Y-103301114D01*
X218418240Y-103370897D01*
X218391509Y-103436669D01*
X218351055Y-103470027D01*
X218338607Y-103476507D01*
X218334474Y-103479610D01*
X218334471Y-103479612D01*
X218179111Y-103596260D01*
X218112626Y-103621166D01*
X218103458Y-103621500D01*
X200023799Y-103621500D01*
X199955678Y-103601498D01*
X199945707Y-103594382D01*
X199823414Y-103497800D01*
X199823410Y-103497798D01*
X199819359Y-103494598D01*
X199778053Y-103471796D01*
X199728084Y-103421364D01*
X199713312Y-103351921D01*
X199738428Y-103285516D01*
X199765780Y-103258909D01*
X199809603Y-103227650D01*
X199944860Y-103131173D01*
X199957576Y-103118502D01*
X200053219Y-103023192D01*
X200103096Y-102973489D01*
X200127160Y-102940001D01*
X200230435Y-102796277D01*
X200233453Y-102792077D01*
X200288441Y-102680818D01*
X200330136Y-102596453D01*
X200330137Y-102596451D01*
X200332430Y-102591811D01*
X200397370Y-102378069D01*
X200426529Y-102156590D01*
X200428156Y-102090000D01*
X200409852Y-101867361D01*
X200355431Y-101650702D01*
X200266354Y-101445840D01*
X200145014Y-101258277D01*
X199994670Y-101093051D01*
X199990619Y-101089852D01*
X199990615Y-101089848D01*
X199823414Y-100957800D01*
X199823410Y-100957798D01*
X199819359Y-100954598D01*
X199778053Y-100931796D01*
X199728084Y-100881364D01*
X199713312Y-100811921D01*
X199738428Y-100745516D01*
X199765780Y-100718909D01*
X199940651Y-100594175D01*
X199944860Y-100591173D01*
X199947886Y-100588157D01*
X200012588Y-100559570D01*
X200028976Y-100558500D01*
X218107393Y-100558500D01*
X218175514Y-100578502D01*
G37*
%TD.AperFunction*%
%TA.AperFunction,NonConductor*%
G36*
X198175514Y-100578502D02*
G01*
X198187877Y-100587555D01*
X198283126Y-100666632D01*
X198353595Y-100707811D01*
X198356445Y-100709476D01*
X198405169Y-100761114D01*
X198418240Y-100830897D01*
X198391509Y-100896669D01*
X198351055Y-100930027D01*
X198338607Y-100936507D01*
X198334474Y-100939610D01*
X198334471Y-100939612D01*
X198164320Y-101067365D01*
X198159965Y-101070635D01*
X198005629Y-101232138D01*
X197879743Y-101416680D01*
X197785688Y-101619305D01*
X197725989Y-101834570D01*
X197702251Y-102056695D01*
X197702548Y-102061848D01*
X197702548Y-102061851D01*
X197708011Y-102156590D01*
X197715110Y-102279715D01*
X197716247Y-102284761D01*
X197716248Y-102284767D01*
X197740304Y-102391508D01*
X197764222Y-102497639D01*
X197848266Y-102704616D01*
X197850965Y-102709020D01*
X197929021Y-102836396D01*
X197964987Y-102895088D01*
X198111250Y-103063938D01*
X198283126Y-103206632D01*
X198353595Y-103247811D01*
X198356445Y-103249476D01*
X198405169Y-103301114D01*
X198418240Y-103370897D01*
X198391509Y-103436669D01*
X198351055Y-103470027D01*
X198338607Y-103476507D01*
X198334474Y-103479610D01*
X198334471Y-103479612D01*
X198179111Y-103596260D01*
X198112626Y-103621166D01*
X198103458Y-103621500D01*
X100023799Y-103621500D01*
X99955678Y-103601498D01*
X99945707Y-103594382D01*
X99823414Y-103497800D01*
X99823410Y-103497798D01*
X99819359Y-103494598D01*
X99778053Y-103471796D01*
X99728084Y-103421364D01*
X99713312Y-103351921D01*
X99738428Y-103285516D01*
X99765780Y-103258909D01*
X99809603Y-103227650D01*
X99944860Y-103131173D01*
X99957576Y-103118502D01*
X100053219Y-103023192D01*
X100103096Y-102973489D01*
X100127160Y-102940001D01*
X100230435Y-102796277D01*
X100233453Y-102792077D01*
X100288441Y-102680818D01*
X100330136Y-102596453D01*
X100330137Y-102596451D01*
X100332430Y-102591811D01*
X100397370Y-102378069D01*
X100426529Y-102156590D01*
X100428156Y-102090000D01*
X100409852Y-101867361D01*
X100355431Y-101650702D01*
X100266354Y-101445840D01*
X100145014Y-101258277D01*
X99994670Y-101093051D01*
X99990619Y-101089852D01*
X99990615Y-101089848D01*
X99823414Y-100957800D01*
X99823410Y-100957798D01*
X99819359Y-100954598D01*
X99778053Y-100931796D01*
X99728084Y-100881364D01*
X99713312Y-100811921D01*
X99738428Y-100745516D01*
X99765780Y-100718909D01*
X99940651Y-100594175D01*
X99944860Y-100591173D01*
X99947886Y-100588157D01*
X100012588Y-100559570D01*
X100028976Y-100558500D01*
X198107393Y-100558500D01*
X198175514Y-100578502D01*
G37*
%TD.AperFunction*%
%TA.AperFunction,NonConductor*%
G36*
X98175514Y-100578502D02*
G01*
X98187877Y-100587555D01*
X98283126Y-100666632D01*
X98353595Y-100707811D01*
X98356445Y-100709476D01*
X98405169Y-100761114D01*
X98418240Y-100830897D01*
X98391509Y-100896669D01*
X98351055Y-100930027D01*
X98338607Y-100936507D01*
X98334474Y-100939610D01*
X98334471Y-100939612D01*
X98164320Y-101067365D01*
X98159965Y-101070635D01*
X98005629Y-101232138D01*
X97879743Y-101416680D01*
X97785688Y-101619305D01*
X97725989Y-101834570D01*
X97702251Y-102056695D01*
X97702548Y-102061848D01*
X97702548Y-102061851D01*
X97708011Y-102156590D01*
X97715110Y-102279715D01*
X97716247Y-102284761D01*
X97716248Y-102284767D01*
X97740304Y-102391508D01*
X97764222Y-102497639D01*
X97848266Y-102704616D01*
X97850965Y-102709020D01*
X97929021Y-102836396D01*
X97964987Y-102895088D01*
X98111250Y-103063938D01*
X98283126Y-103206632D01*
X98353595Y-103247811D01*
X98356445Y-103249476D01*
X98405169Y-103301114D01*
X98418240Y-103370897D01*
X98391509Y-103436669D01*
X98351055Y-103470027D01*
X98338607Y-103476507D01*
X98334474Y-103479610D01*
X98334471Y-103479612D01*
X98179111Y-103596260D01*
X98112626Y-103621166D01*
X98103458Y-103621500D01*
X60023799Y-103621500D01*
X59955678Y-103601498D01*
X59945707Y-103594382D01*
X59823414Y-103497800D01*
X59823410Y-103497798D01*
X59819359Y-103494598D01*
X59778053Y-103471796D01*
X59728084Y-103421364D01*
X59713312Y-103351921D01*
X59738428Y-103285516D01*
X59765780Y-103258909D01*
X59809603Y-103227650D01*
X59944860Y-103131173D01*
X59957576Y-103118502D01*
X60053219Y-103023192D01*
X60103096Y-102973489D01*
X60127160Y-102940001D01*
X60230435Y-102796277D01*
X60233453Y-102792077D01*
X60288441Y-102680818D01*
X60330136Y-102596453D01*
X60330137Y-102596451D01*
X60332430Y-102591811D01*
X60397370Y-102378069D01*
X60426529Y-102156590D01*
X60428156Y-102090000D01*
X60409852Y-101867361D01*
X60355431Y-101650702D01*
X60266354Y-101445840D01*
X60145014Y-101258277D01*
X59994670Y-101093051D01*
X59990619Y-101089852D01*
X59990615Y-101089848D01*
X59823414Y-100957800D01*
X59823410Y-100957798D01*
X59819359Y-100954598D01*
X59778053Y-100931796D01*
X59728084Y-100881364D01*
X59713312Y-100811921D01*
X59738428Y-100745516D01*
X59765780Y-100718909D01*
X59940651Y-100594175D01*
X59944860Y-100591173D01*
X59947886Y-100588157D01*
X60012588Y-100559570D01*
X60028976Y-100558500D01*
X98107393Y-100558500D01*
X98175514Y-100578502D01*
G37*
%TD.AperFunction*%
%TA.AperFunction,NonConductor*%
G36*
X338175514Y-100578502D02*
G01*
X338187877Y-100587555D01*
X338283126Y-100666632D01*
X338353595Y-100707811D01*
X338356445Y-100709476D01*
X338405169Y-100761114D01*
X338418240Y-100830897D01*
X338391509Y-100896669D01*
X338351055Y-100930027D01*
X338338607Y-100936507D01*
X338334474Y-100939610D01*
X338334471Y-100939612D01*
X338164320Y-101067365D01*
X338159965Y-101070635D01*
X338005629Y-101232138D01*
X337879743Y-101416680D01*
X337785688Y-101619305D01*
X337725989Y-101834570D01*
X337702251Y-102056695D01*
X337702548Y-102061848D01*
X337702548Y-102061851D01*
X337708011Y-102156590D01*
X337715110Y-102279715D01*
X337716247Y-102284761D01*
X337716248Y-102284767D01*
X337740304Y-102391508D01*
X337764222Y-102497639D01*
X337848266Y-102704616D01*
X337850965Y-102709020D01*
X337929021Y-102836396D01*
X337964987Y-102895088D01*
X338111250Y-103063938D01*
X338283126Y-103206632D01*
X338353595Y-103247811D01*
X338356445Y-103249476D01*
X338405169Y-103301114D01*
X338418240Y-103370897D01*
X338391509Y-103436669D01*
X338351055Y-103470027D01*
X338338607Y-103476507D01*
X338334474Y-103479610D01*
X338334471Y-103479612D01*
X338179111Y-103596260D01*
X338112626Y-103621166D01*
X338103458Y-103621500D01*
X220023799Y-103621500D01*
X219955678Y-103601498D01*
X219945707Y-103594382D01*
X219823414Y-103497800D01*
X219823410Y-103497798D01*
X219819359Y-103494598D01*
X219778053Y-103471796D01*
X219728084Y-103421364D01*
X219713312Y-103351921D01*
X219738428Y-103285516D01*
X219765780Y-103258909D01*
X219809603Y-103227650D01*
X219944860Y-103131173D01*
X219957576Y-103118502D01*
X220053219Y-103023192D01*
X220103096Y-102973489D01*
X220127160Y-102940001D01*
X220230435Y-102796277D01*
X220233453Y-102792077D01*
X220288441Y-102680818D01*
X220330136Y-102596453D01*
X220330137Y-102596451D01*
X220332430Y-102591811D01*
X220397370Y-102378069D01*
X220426529Y-102156590D01*
X220428156Y-102090000D01*
X220409852Y-101867361D01*
X220355431Y-101650702D01*
X220266354Y-101445840D01*
X220145014Y-101258277D01*
X219994670Y-101093051D01*
X219990619Y-101089852D01*
X219990615Y-101089848D01*
X219823414Y-100957800D01*
X219823410Y-100957798D01*
X219819359Y-100954598D01*
X219778053Y-100931796D01*
X219728084Y-100881364D01*
X219713312Y-100811921D01*
X219738428Y-100745516D01*
X219765780Y-100718909D01*
X219940651Y-100594175D01*
X219944860Y-100591173D01*
X219947886Y-100588157D01*
X220012588Y-100559570D01*
X220028976Y-100558500D01*
X338107393Y-100558500D01*
X338175514Y-100578502D01*
G37*
%TD.AperFunction*%
M02*
