%TF.GenerationSoftware,KiCad,Pcbnew,(6.0.0)*%
%TF.CreationDate,2022-11-08T22:36:27+01:00*%
%TF.ProjectId,2-way,322d7761-792e-46b6-9963-61645f706362,rev?*%
%TF.SameCoordinates,Original*%
%TF.FileFunction,Copper,L1,Top*%
%TF.FilePolarity,Positive*%
%FSLAX46Y46*%
G04 Gerber Fmt 4.6, Leading zero omitted, Abs format (unit mm)*
G04 Created by KiCad (PCBNEW (6.0.0)) date 2022-11-08 22:36:27*
%MOMM*%
%LPD*%
G01*
G04 APERTURE LIST*
%TA.AperFunction,ComponentPad*%
%ADD10R,1.700000X1.700000*%
%TD*%
%TA.AperFunction,ComponentPad*%
%ADD11O,1.700000X1.700000*%
%TD*%
%TA.AperFunction,ViaPad*%
%ADD12C,0.800000*%
%TD*%
%TA.AperFunction,Conductor*%
%ADD13C,1.000000*%
%TD*%
G04 APERTURE END LIST*
D10*
%TO.P,M4,1,-*%
%TO.N,GND*%
X99830000Y-88010000D03*
D11*
%TO.P,M4,2,+*%
%TO.N,Net-(M1-Pad3)*%
X99830000Y-90550000D03*
%TO.P,M4,3,Tacho*%
%TO.N,unconnected-(M4-Pad3)*%
X99830000Y-93090000D03*
%TO.P,M4,4,PWM*%
%TO.N,Net-(M1-Pad1)*%
X99830000Y-95630000D03*
%TD*%
D10*
%TO.P,M1,1,PWM*%
%TO.N,Net-(M1-Pad1)*%
X249830000Y-88010000D03*
D11*
%TO.P,M1,2,Tacho*%
%TO.N,Net-(M1-Pad2)*%
X249830000Y-90550000D03*
%TO.P,M1,3,12V*%
%TO.N,Net-(M1-Pad3)*%
X249830000Y-93090000D03*
%TO.P,M1,4,GND*%
%TO.N,GND*%
X249830000Y-95630000D03*
%TD*%
D10*
%TO.P,M2,1,-*%
%TO.N,GND*%
X239830000Y-88010000D03*
D11*
%TO.P,M2,2,+*%
%TO.N,Net-(M1-Pad3)*%
X239830000Y-90550000D03*
%TO.P,M2,3,Tacho*%
%TO.N,Net-(M1-Pad2)*%
X239830000Y-93090000D03*
%TO.P,M2,4,PWM*%
%TO.N,Net-(M1-Pad1)*%
X239830000Y-95630000D03*
%TD*%
D10*
%TO.P,M3,1,-*%
%TO.N,GND*%
X119830000Y-88010000D03*
D11*
%TO.P,M3,2,+*%
%TO.N,Net-(M1-Pad3)*%
X119830000Y-90550000D03*
%TO.P,M3,3,Tacho*%
%TO.N,unconnected-(M3-Pad3)*%
X119830000Y-93090000D03*
%TO.P,M3,4,PWM*%
%TO.N,Net-(M1-Pad1)*%
X119830000Y-95630000D03*
%TD*%
D12*
%TO.N,Net-(M1-Pad2)*%
X244930000Y-93058189D03*
%TO.N,GND*%
X95830000Y-96910000D03*
X262930000Y-86710000D03*
X95830000Y-86710000D03*
X262930000Y-96910000D03*
X95830000Y-96910000D03*
X262930000Y-96910000D03*
X95830000Y-86710000D03*
X262930000Y-86710000D03*
%TD*%
D13*
%TO.N,Net-(M1-Pad1)*%
X239830000Y-95630000D02*
X99830000Y-95630000D01*
%TO.N,Net-(M1-Pad2)*%
X244898189Y-93090000D02*
X239830000Y-93090000D01*
X244930000Y-93058189D02*
X244898189Y-93090000D01*
%TO.N,Net-(M1-Pad3)*%
X247690000Y-93090000D02*
X249830000Y-93090000D01*
X239830000Y-90550000D02*
X245150000Y-90550000D01*
X245150000Y-90550000D02*
X247690000Y-93090000D01*
X239830000Y-90550000D02*
X99830000Y-90550000D01*
%TD*%
%TA.AperFunction,Conductor*%
%TO.N,GND*%
G36*
X262900057Y-86219500D02*
G01*
X262914858Y-86221805D01*
X262914862Y-86221805D01*
X262923731Y-86223186D01*
X262932633Y-86222022D01*
X262932637Y-86222022D01*
X262932733Y-86222009D01*
X262963170Y-86221738D01*
X263025375Y-86228746D01*
X263052882Y-86235024D01*
X263130071Y-86262034D01*
X263155491Y-86274276D01*
X263224738Y-86317787D01*
X263246797Y-86335379D01*
X263304621Y-86393203D01*
X263322213Y-86415262D01*
X263365724Y-86484509D01*
X263377966Y-86509930D01*
X263404975Y-86587117D01*
X263411254Y-86614624D01*
X263415466Y-86652001D01*
X263417522Y-86670251D01*
X263418305Y-86685897D01*
X263418196Y-86694855D01*
X263416814Y-86703729D01*
X263418258Y-86714771D01*
X263420936Y-86735250D01*
X263422000Y-86751588D01*
X263422000Y-96860673D01*
X263420500Y-96880057D01*
X263418195Y-96894858D01*
X263418195Y-96894862D01*
X263416814Y-96903731D01*
X263417978Y-96912633D01*
X263417978Y-96912637D01*
X263417991Y-96912733D01*
X263418262Y-96943170D01*
X263411254Y-97005375D01*
X263404975Y-97032885D01*
X263377966Y-97110071D01*
X263365724Y-97135491D01*
X263322213Y-97204738D01*
X263304621Y-97226797D01*
X263246797Y-97284621D01*
X263224738Y-97302213D01*
X263155491Y-97345724D01*
X263130070Y-97357966D01*
X263052883Y-97384975D01*
X263025376Y-97391254D01*
X263001428Y-97393952D01*
X262969744Y-97397522D01*
X262954103Y-97398305D01*
X262945145Y-97398196D01*
X262936271Y-97396814D01*
X262904750Y-97400936D01*
X262888412Y-97402000D01*
X95879327Y-97402000D01*
X95859943Y-97400500D01*
X95845142Y-97398195D01*
X95845138Y-97398195D01*
X95836269Y-97396814D01*
X95827367Y-97397978D01*
X95827363Y-97397978D01*
X95827267Y-97397991D01*
X95796830Y-97398262D01*
X95734625Y-97391254D01*
X95707118Y-97384976D01*
X95629928Y-97357966D01*
X95604509Y-97345724D01*
X95535262Y-97302213D01*
X95513203Y-97284621D01*
X95455379Y-97226797D01*
X95437787Y-97204738D01*
X95394276Y-97135491D01*
X95382034Y-97110070D01*
X95355025Y-97032883D01*
X95348746Y-97005376D01*
X95342478Y-96949749D01*
X95341695Y-96934103D01*
X95341804Y-96925145D01*
X95343186Y-96916271D01*
X95339064Y-96884749D01*
X95338000Y-96868412D01*
X95338000Y-95596695D01*
X98467251Y-95596695D01*
X98467548Y-95601848D01*
X98467548Y-95601851D01*
X98473011Y-95696590D01*
X98480110Y-95819715D01*
X98481247Y-95824761D01*
X98481248Y-95824767D01*
X98501119Y-95912939D01*
X98529222Y-96037639D01*
X98613266Y-96244616D01*
X98615965Y-96249020D01*
X98705245Y-96394712D01*
X98729987Y-96435088D01*
X98876250Y-96603938D01*
X99048126Y-96746632D01*
X99241000Y-96859338D01*
X99245825Y-96861180D01*
X99245826Y-96861181D01*
X99307547Y-96884750D01*
X99449692Y-96939030D01*
X99454760Y-96940061D01*
X99454763Y-96940062D01*
X99562017Y-96961883D01*
X99668597Y-96983567D01*
X99673772Y-96983757D01*
X99673774Y-96983757D01*
X99886673Y-96991564D01*
X99886677Y-96991564D01*
X99891837Y-96991753D01*
X99896957Y-96991097D01*
X99896959Y-96991097D01*
X100108288Y-96964025D01*
X100108289Y-96964025D01*
X100113416Y-96963368D01*
X100118366Y-96961883D01*
X100322429Y-96900661D01*
X100322434Y-96900659D01*
X100327384Y-96899174D01*
X100527994Y-96800896D01*
X100709860Y-96671173D01*
X100712886Y-96668157D01*
X100777588Y-96639570D01*
X100793976Y-96638500D01*
X118872393Y-96638500D01*
X118940514Y-96658502D01*
X118952877Y-96667555D01*
X119048126Y-96746632D01*
X119241000Y-96859338D01*
X119245825Y-96861180D01*
X119245826Y-96861181D01*
X119307547Y-96884750D01*
X119449692Y-96939030D01*
X119454760Y-96940061D01*
X119454763Y-96940062D01*
X119562017Y-96961883D01*
X119668597Y-96983567D01*
X119673772Y-96983757D01*
X119673774Y-96983757D01*
X119886673Y-96991564D01*
X119886677Y-96991564D01*
X119891837Y-96991753D01*
X119896957Y-96991097D01*
X119896959Y-96991097D01*
X120108288Y-96964025D01*
X120108289Y-96964025D01*
X120113416Y-96963368D01*
X120118366Y-96961883D01*
X120322429Y-96900661D01*
X120322434Y-96900659D01*
X120327384Y-96899174D01*
X120527994Y-96800896D01*
X120709860Y-96671173D01*
X120712886Y-96668157D01*
X120777588Y-96639570D01*
X120793976Y-96638500D01*
X238872393Y-96638500D01*
X238940514Y-96658502D01*
X238952877Y-96667555D01*
X239048126Y-96746632D01*
X239241000Y-96859338D01*
X239245825Y-96861180D01*
X239245826Y-96861181D01*
X239307547Y-96884750D01*
X239449692Y-96939030D01*
X239454760Y-96940061D01*
X239454763Y-96940062D01*
X239562017Y-96961883D01*
X239668597Y-96983567D01*
X239673772Y-96983757D01*
X239673774Y-96983757D01*
X239886673Y-96991564D01*
X239886677Y-96991564D01*
X239891837Y-96991753D01*
X239896957Y-96991097D01*
X239896959Y-96991097D01*
X240108288Y-96964025D01*
X240108289Y-96964025D01*
X240113416Y-96963368D01*
X240118366Y-96961883D01*
X240322429Y-96900661D01*
X240322434Y-96900659D01*
X240327384Y-96899174D01*
X240527994Y-96800896D01*
X240709860Y-96671173D01*
X240722576Y-96658502D01*
X240864435Y-96517137D01*
X240868096Y-96513489D01*
X240871346Y-96508967D01*
X240960610Y-96384741D01*
X248701290Y-96384741D01*
X248703536Y-96390965D01*
X248727694Y-96430388D01*
X248733777Y-96438699D01*
X248873213Y-96599667D01*
X248880580Y-96606883D01*
X249044434Y-96742916D01*
X249052880Y-96748831D01*
X249064359Y-96755538D01*
X249078045Y-96758934D01*
X249078965Y-96757778D01*
X249080000Y-96752482D01*
X249080000Y-96745071D01*
X250580000Y-96745071D01*
X250583751Y-96757844D01*
X250592284Y-96754424D01*
X250705328Y-96673792D01*
X250713200Y-96667139D01*
X250864051Y-96516813D01*
X250870728Y-96508967D01*
X250952829Y-96394712D01*
X250957216Y-96382208D01*
X250948199Y-96380000D01*
X250598115Y-96380000D01*
X250582876Y-96384475D01*
X250581671Y-96385865D01*
X250580000Y-96393548D01*
X250580000Y-96745071D01*
X249080000Y-96745071D01*
X249080000Y-96398115D01*
X249075525Y-96382876D01*
X249074135Y-96381671D01*
X249066452Y-96380000D01*
X248714931Y-96380000D01*
X248701400Y-96383973D01*
X248701290Y-96384741D01*
X240960610Y-96384741D01*
X240995435Y-96336277D01*
X240998453Y-96332077D01*
X241097430Y-96131811D01*
X241162370Y-95918069D01*
X241191529Y-95696590D01*
X241193156Y-95630000D01*
X241174852Y-95407361D01*
X241120431Y-95190702D01*
X241031354Y-94985840D01*
X240910014Y-94798277D01*
X240759670Y-94633051D01*
X240755619Y-94629852D01*
X240755615Y-94629848D01*
X240588414Y-94497800D01*
X240588410Y-94497798D01*
X240584359Y-94494598D01*
X240543053Y-94471796D01*
X240493084Y-94421364D01*
X240478312Y-94351921D01*
X240503428Y-94285516D01*
X240530780Y-94258909D01*
X240705651Y-94134175D01*
X240709860Y-94131173D01*
X240712886Y-94128157D01*
X240777588Y-94099570D01*
X240793976Y-94098500D01*
X244836346Y-94098500D01*
X244849953Y-94099237D01*
X244881451Y-94102659D01*
X244881456Y-94102659D01*
X244887577Y-94103324D01*
X244913827Y-94101027D01*
X244937577Y-94098950D01*
X244942403Y-94098621D01*
X244944875Y-94098500D01*
X244947958Y-94098500D01*
X244959927Y-94097326D01*
X244990695Y-94094310D01*
X244992008Y-94094188D01*
X245036273Y-94090315D01*
X245084602Y-94086087D01*
X245089721Y-94084600D01*
X245095022Y-94084080D01*
X245184023Y-94057209D01*
X245185156Y-94056874D01*
X245268603Y-94032630D01*
X245268607Y-94032628D01*
X245274525Y-94030909D01*
X245279257Y-94028456D01*
X245284358Y-94026916D01*
X245291362Y-94023192D01*
X245366449Y-93983269D01*
X245367615Y-93982657D01*
X245444642Y-93942729D01*
X245450115Y-93939892D01*
X245454278Y-93936569D01*
X245458985Y-93934066D01*
X245531107Y-93875245D01*
X245531963Y-93874554D01*
X245571162Y-93843262D01*
X245573666Y-93840758D01*
X245574384Y-93840116D01*
X245578717Y-93836415D01*
X245612251Y-93809065D01*
X245630143Y-93787438D01*
X245641476Y-93773738D01*
X245649466Y-93764958D01*
X245678310Y-93736114D01*
X245772103Y-93621927D01*
X245775010Y-93616505D01*
X245775013Y-93616501D01*
X245862651Y-93453057D01*
X245862651Y-93453056D01*
X245865563Y-93447626D01*
X245923388Y-93258491D01*
X245943374Y-93061726D01*
X245945918Y-93061984D01*
X245962999Y-93004631D01*
X246016833Y-92958345D01*
X246087145Y-92948511D01*
X246151612Y-92978253D01*
X246157829Y-92984064D01*
X246933149Y-93759384D01*
X246942251Y-93769527D01*
X246965968Y-93799025D01*
X247004446Y-93831312D01*
X247008062Y-93834467D01*
X247009888Y-93836123D01*
X247012074Y-93838309D01*
X247014454Y-93840264D01*
X247014464Y-93840273D01*
X247045268Y-93865576D01*
X247046283Y-93866418D01*
X247117474Y-93926154D01*
X247122148Y-93928723D01*
X247126261Y-93932102D01*
X247131698Y-93935017D01*
X247131699Y-93935018D01*
X247208047Y-93975955D01*
X247209177Y-93976568D01*
X247290787Y-94021433D01*
X247295869Y-94023045D01*
X247300563Y-94025562D01*
X247389531Y-94052762D01*
X247390559Y-94053082D01*
X247479306Y-94081235D01*
X247484602Y-94081829D01*
X247489698Y-94083387D01*
X247582257Y-94092790D01*
X247583393Y-94092911D01*
X247617008Y-94096681D01*
X247629730Y-94098108D01*
X247629734Y-94098108D01*
X247633227Y-94098500D01*
X247636754Y-94098500D01*
X247637739Y-94098555D01*
X247643419Y-94099002D01*
X247672825Y-94101989D01*
X247680337Y-94102752D01*
X247680339Y-94102752D01*
X247686462Y-94103374D01*
X247732108Y-94099059D01*
X247743967Y-94098500D01*
X248872393Y-94098500D01*
X248940514Y-94118502D01*
X248952877Y-94127555D01*
X249048126Y-94206632D01*
X249121445Y-94249476D01*
X249121955Y-94249774D01*
X249170679Y-94301412D01*
X249183750Y-94371195D01*
X249157019Y-94436967D01*
X249116562Y-94470327D01*
X249108457Y-94474546D01*
X249099738Y-94480036D01*
X248929433Y-94607905D01*
X248921726Y-94614748D01*
X248774590Y-94768717D01*
X248768104Y-94776727D01*
X248707865Y-94865034D01*
X248703653Y-94878046D01*
X248712076Y-94880000D01*
X250944173Y-94880000D01*
X250957683Y-94876033D01*
X250954877Y-94868544D01*
X250912427Y-94802926D01*
X250906136Y-94794757D01*
X250762806Y-94637240D01*
X250755273Y-94630215D01*
X250588139Y-94498222D01*
X250579556Y-94492520D01*
X250542602Y-94472120D01*
X250492631Y-94421687D01*
X250477859Y-94352245D01*
X250502975Y-94285839D01*
X250530327Y-94259232D01*
X250553797Y-94242491D01*
X250709860Y-94131173D01*
X250722576Y-94118502D01*
X250818219Y-94023192D01*
X250868096Y-93973489D01*
X250892160Y-93940001D01*
X250995435Y-93796277D01*
X250998453Y-93792077D01*
X251009778Y-93769164D01*
X251095136Y-93596453D01*
X251095137Y-93596451D01*
X251097430Y-93591811D01*
X251162370Y-93378069D01*
X251191529Y-93156590D01*
X251193156Y-93090000D01*
X251174852Y-92867361D01*
X251120431Y-92650702D01*
X251031354Y-92445840D01*
X250910014Y-92258277D01*
X250759670Y-92093051D01*
X250755619Y-92089852D01*
X250755615Y-92089848D01*
X250588414Y-91957800D01*
X250588410Y-91957798D01*
X250584359Y-91954598D01*
X250543053Y-91931796D01*
X250493084Y-91881364D01*
X250478312Y-91811921D01*
X250503428Y-91745516D01*
X250530780Y-91718909D01*
X250574603Y-91687650D01*
X250709860Y-91591173D01*
X250722576Y-91578502D01*
X250864435Y-91437137D01*
X250868096Y-91433489D01*
X250927594Y-91350689D01*
X250995435Y-91256277D01*
X250998453Y-91252077D01*
X251097430Y-91051811D01*
X251162370Y-90838069D01*
X251191529Y-90616590D01*
X251193156Y-90550000D01*
X251174852Y-90327361D01*
X251120431Y-90110702D01*
X251031354Y-89905840D01*
X250962712Y-89799735D01*
X250912822Y-89722617D01*
X250912820Y-89722614D01*
X250910014Y-89718277D01*
X250906532Y-89714450D01*
X250762798Y-89556488D01*
X250731746Y-89492642D01*
X250740141Y-89422143D01*
X250785317Y-89367375D01*
X250811761Y-89353706D01*
X250918297Y-89313767D01*
X250926705Y-89310615D01*
X251043261Y-89223261D01*
X251130615Y-89106705D01*
X251181745Y-88970316D01*
X251188500Y-88908134D01*
X251188500Y-87111866D01*
X251181745Y-87049684D01*
X251130615Y-86913295D01*
X251043261Y-86796739D01*
X250926705Y-86709385D01*
X250790316Y-86658255D01*
X250728134Y-86651500D01*
X248931866Y-86651500D01*
X248869684Y-86658255D01*
X248733295Y-86709385D01*
X248616739Y-86796739D01*
X248529385Y-86913295D01*
X248478255Y-87049684D01*
X248471500Y-87111866D01*
X248471500Y-88908134D01*
X248478255Y-88970316D01*
X248529385Y-89106705D01*
X248616739Y-89223261D01*
X248733295Y-89310615D01*
X248741704Y-89313767D01*
X248741705Y-89313768D01*
X248850451Y-89354535D01*
X248907216Y-89397176D01*
X248931916Y-89463738D01*
X248916709Y-89533087D01*
X248897316Y-89559568D01*
X248844351Y-89614993D01*
X248770629Y-89692138D01*
X248767715Y-89696410D01*
X248767714Y-89696411D01*
X248697231Y-89799735D01*
X248644743Y-89876680D01*
X248550688Y-90079305D01*
X248490989Y-90294570D01*
X248467251Y-90516695D01*
X248467548Y-90521848D01*
X248467548Y-90521851D01*
X248473011Y-90616590D01*
X248480110Y-90739715D01*
X248481247Y-90744761D01*
X248481248Y-90744767D01*
X248501119Y-90832939D01*
X248529222Y-90957639D01*
X248613266Y-91164616D01*
X248729987Y-91355088D01*
X248876250Y-91523938D01*
X249048126Y-91666632D01*
X249118595Y-91707811D01*
X249121445Y-91709476D01*
X249170169Y-91761114D01*
X249183240Y-91830897D01*
X249156509Y-91896669D01*
X249116055Y-91930027D01*
X249103607Y-91936507D01*
X249099474Y-91939610D01*
X249099471Y-91939612D01*
X248944111Y-92056260D01*
X248877626Y-92081166D01*
X248868458Y-92081500D01*
X248159924Y-92081500D01*
X248091803Y-92061498D01*
X248070829Y-92044595D01*
X245906855Y-89880621D01*
X245897753Y-89870478D01*
X245877897Y-89845782D01*
X245874032Y-89840975D01*
X245835578Y-89808708D01*
X245831931Y-89805528D01*
X245830119Y-89803885D01*
X245827925Y-89801691D01*
X245794651Y-89774358D01*
X245793853Y-89773696D01*
X245722526Y-89713846D01*
X245717856Y-89711278D01*
X245713739Y-89707897D01*
X245631914Y-89664023D01*
X245630755Y-89663394D01*
X245554619Y-89621538D01*
X245554611Y-89621535D01*
X245549213Y-89618567D01*
X245544131Y-89616955D01*
X245539437Y-89614438D01*
X245450469Y-89587238D01*
X245449441Y-89586918D01*
X245360694Y-89558765D01*
X245355398Y-89558171D01*
X245350302Y-89556613D01*
X245257743Y-89547210D01*
X245256607Y-89547089D01*
X245222992Y-89543319D01*
X245210270Y-89541892D01*
X245210266Y-89541892D01*
X245206773Y-89541500D01*
X245203246Y-89541500D01*
X245202261Y-89541445D01*
X245196581Y-89540998D01*
X245167175Y-89538011D01*
X245159663Y-89537248D01*
X245159661Y-89537248D01*
X245153538Y-89536626D01*
X245111259Y-89540623D01*
X245107891Y-89540941D01*
X245096033Y-89541500D01*
X240993804Y-89541500D01*
X240925683Y-89521498D01*
X240879190Y-89467842D01*
X240869086Y-89397568D01*
X240898580Y-89332988D01*
X240926612Y-89310372D01*
X240926462Y-89310172D01*
X240932057Y-89305979D01*
X240933295Y-89304980D01*
X240933646Y-89304788D01*
X241035724Y-89228285D01*
X241048285Y-89215724D01*
X241124786Y-89113649D01*
X241133324Y-89098054D01*
X241178478Y-88977606D01*
X241182105Y-88962351D01*
X241187631Y-88911486D01*
X241188000Y-88904672D01*
X241188000Y-88778115D01*
X241183525Y-88762876D01*
X241182135Y-88761671D01*
X241174452Y-88760000D01*
X238490116Y-88760000D01*
X238474877Y-88764475D01*
X238473672Y-88765865D01*
X238472001Y-88773548D01*
X238472001Y-88904669D01*
X238472371Y-88911490D01*
X238477895Y-88962352D01*
X238481521Y-88977604D01*
X238526676Y-89098054D01*
X238535214Y-89113649D01*
X238611715Y-89215724D01*
X238624276Y-89228285D01*
X238726354Y-89304788D01*
X238726705Y-89304980D01*
X238726986Y-89305261D01*
X238733538Y-89310172D01*
X238732829Y-89311118D01*
X238776851Y-89355238D01*
X238791865Y-89424629D01*
X238766980Y-89491121D01*
X238710097Y-89533605D01*
X238666196Y-89541500D01*
X120993804Y-89541500D01*
X120925683Y-89521498D01*
X120879190Y-89467842D01*
X120869086Y-89397568D01*
X120898580Y-89332988D01*
X120926612Y-89310372D01*
X120926462Y-89310172D01*
X120932057Y-89305979D01*
X120933295Y-89304980D01*
X120933646Y-89304788D01*
X121035724Y-89228285D01*
X121048285Y-89215724D01*
X121124786Y-89113649D01*
X121133324Y-89098054D01*
X121178478Y-88977606D01*
X121182105Y-88962351D01*
X121187631Y-88911486D01*
X121188000Y-88904672D01*
X121188000Y-88778115D01*
X121183525Y-88762876D01*
X121182135Y-88761671D01*
X121174452Y-88760000D01*
X118490116Y-88760000D01*
X118474877Y-88764475D01*
X118473672Y-88765865D01*
X118472001Y-88773548D01*
X118472001Y-88904669D01*
X118472371Y-88911490D01*
X118477895Y-88962352D01*
X118481521Y-88977604D01*
X118526676Y-89098054D01*
X118535214Y-89113649D01*
X118611715Y-89215724D01*
X118624276Y-89228285D01*
X118726354Y-89304788D01*
X118726705Y-89304980D01*
X118726986Y-89305261D01*
X118733538Y-89310172D01*
X118732829Y-89311118D01*
X118776851Y-89355238D01*
X118791865Y-89424629D01*
X118766980Y-89491121D01*
X118710097Y-89533605D01*
X118666196Y-89541500D01*
X100993804Y-89541500D01*
X100925683Y-89521498D01*
X100879190Y-89467842D01*
X100869086Y-89397568D01*
X100898580Y-89332988D01*
X100926612Y-89310372D01*
X100926462Y-89310172D01*
X100932057Y-89305979D01*
X100933295Y-89304980D01*
X100933646Y-89304788D01*
X101035724Y-89228285D01*
X101048285Y-89215724D01*
X101124786Y-89113649D01*
X101133324Y-89098054D01*
X101178478Y-88977606D01*
X101182105Y-88962351D01*
X101187631Y-88911486D01*
X101188000Y-88904672D01*
X101188000Y-88778115D01*
X101183525Y-88762876D01*
X101182135Y-88761671D01*
X101174452Y-88760000D01*
X98490116Y-88760000D01*
X98474877Y-88764475D01*
X98473672Y-88765865D01*
X98472001Y-88773548D01*
X98472001Y-88904669D01*
X98472371Y-88911490D01*
X98477895Y-88962352D01*
X98481521Y-88977604D01*
X98526676Y-89098054D01*
X98535214Y-89113649D01*
X98611715Y-89215724D01*
X98624276Y-89228285D01*
X98726351Y-89304786D01*
X98741946Y-89313324D01*
X98850827Y-89354142D01*
X98907591Y-89396784D01*
X98932291Y-89463345D01*
X98917083Y-89532694D01*
X98897691Y-89559175D01*
X98839987Y-89619559D01*
X98770629Y-89692138D01*
X98767715Y-89696410D01*
X98767714Y-89696411D01*
X98697231Y-89799735D01*
X98644743Y-89876680D01*
X98550688Y-90079305D01*
X98490989Y-90294570D01*
X98467251Y-90516695D01*
X98467548Y-90521848D01*
X98467548Y-90521851D01*
X98473011Y-90616590D01*
X98480110Y-90739715D01*
X98481247Y-90744761D01*
X98481248Y-90744767D01*
X98501119Y-90832939D01*
X98529222Y-90957639D01*
X98613266Y-91164616D01*
X98729987Y-91355088D01*
X98876250Y-91523938D01*
X99048126Y-91666632D01*
X99118595Y-91707811D01*
X99121445Y-91709476D01*
X99170169Y-91761114D01*
X99183240Y-91830897D01*
X99156509Y-91896669D01*
X99116055Y-91930027D01*
X99103607Y-91936507D01*
X99099474Y-91939610D01*
X99099471Y-91939612D01*
X98929100Y-92067530D01*
X98924965Y-92070635D01*
X98770629Y-92232138D01*
X98644743Y-92416680D01*
X98550688Y-92619305D01*
X98490989Y-92834570D01*
X98467251Y-93056695D01*
X98467548Y-93061848D01*
X98467548Y-93061851D01*
X98473011Y-93156590D01*
X98480110Y-93279715D01*
X98481247Y-93284761D01*
X98481248Y-93284767D01*
X98501119Y-93372939D01*
X98529222Y-93497639D01*
X98613266Y-93704616D01*
X98615965Y-93709020D01*
X98694021Y-93836396D01*
X98729987Y-93895088D01*
X98876250Y-94063938D01*
X99048126Y-94206632D01*
X99118595Y-94247811D01*
X99121445Y-94249476D01*
X99170169Y-94301114D01*
X99183240Y-94370897D01*
X99156509Y-94436669D01*
X99116055Y-94470027D01*
X99103607Y-94476507D01*
X99099474Y-94479610D01*
X99099471Y-94479612D01*
X98937134Y-94601498D01*
X98924965Y-94610635D01*
X98770629Y-94772138D01*
X98767715Y-94776410D01*
X98767714Y-94776411D01*
X98755404Y-94794457D01*
X98644743Y-94956680D01*
X98550688Y-95159305D01*
X98490989Y-95374570D01*
X98467251Y-95596695D01*
X95338000Y-95596695D01*
X95338000Y-87241885D01*
X98472000Y-87241885D01*
X98476475Y-87257124D01*
X98477865Y-87258329D01*
X98485548Y-87260000D01*
X99061885Y-87260000D01*
X99077124Y-87255525D01*
X99078329Y-87254135D01*
X99080000Y-87246452D01*
X99080000Y-87241885D01*
X100580000Y-87241885D01*
X100584475Y-87257124D01*
X100585865Y-87258329D01*
X100593548Y-87260000D01*
X101169884Y-87260000D01*
X101185123Y-87255525D01*
X101186328Y-87254135D01*
X101187999Y-87246452D01*
X101187999Y-87241885D01*
X118472000Y-87241885D01*
X118476475Y-87257124D01*
X118477865Y-87258329D01*
X118485548Y-87260000D01*
X119061885Y-87260000D01*
X119077124Y-87255525D01*
X119078329Y-87254135D01*
X119080000Y-87246452D01*
X119080000Y-87241885D01*
X120580000Y-87241885D01*
X120584475Y-87257124D01*
X120585865Y-87258329D01*
X120593548Y-87260000D01*
X121169884Y-87260000D01*
X121185123Y-87255525D01*
X121186328Y-87254135D01*
X121187999Y-87246452D01*
X121187999Y-87241885D01*
X238472000Y-87241885D01*
X238476475Y-87257124D01*
X238477865Y-87258329D01*
X238485548Y-87260000D01*
X239061885Y-87260000D01*
X239077124Y-87255525D01*
X239078329Y-87254135D01*
X239080000Y-87246452D01*
X239080000Y-87241885D01*
X240580000Y-87241885D01*
X240584475Y-87257124D01*
X240585865Y-87258329D01*
X240593548Y-87260000D01*
X241169884Y-87260000D01*
X241185123Y-87255525D01*
X241186328Y-87254135D01*
X241187999Y-87246452D01*
X241187999Y-87115331D01*
X241187629Y-87108510D01*
X241182105Y-87057648D01*
X241178479Y-87042396D01*
X241133324Y-86921946D01*
X241124786Y-86906351D01*
X241048285Y-86804276D01*
X241035724Y-86791715D01*
X240933649Y-86715214D01*
X240918054Y-86706676D01*
X240797606Y-86661522D01*
X240782351Y-86657895D01*
X240731486Y-86652369D01*
X240724672Y-86652000D01*
X240598115Y-86652000D01*
X240582876Y-86656475D01*
X240581671Y-86657865D01*
X240580000Y-86665548D01*
X240580000Y-87241885D01*
X239080000Y-87241885D01*
X239080000Y-86670116D01*
X239075525Y-86654877D01*
X239074135Y-86653672D01*
X239066452Y-86652001D01*
X238935331Y-86652001D01*
X238928510Y-86652371D01*
X238877648Y-86657895D01*
X238862396Y-86661521D01*
X238741946Y-86706676D01*
X238726351Y-86715214D01*
X238624276Y-86791715D01*
X238611715Y-86804276D01*
X238535214Y-86906351D01*
X238526676Y-86921946D01*
X238481522Y-87042394D01*
X238477895Y-87057649D01*
X238472369Y-87108514D01*
X238472000Y-87115328D01*
X238472000Y-87241885D01*
X121187999Y-87241885D01*
X121187999Y-87115331D01*
X121187629Y-87108510D01*
X121182105Y-87057648D01*
X121178479Y-87042396D01*
X121133324Y-86921946D01*
X121124786Y-86906351D01*
X121048285Y-86804276D01*
X121035724Y-86791715D01*
X120933649Y-86715214D01*
X120918054Y-86706676D01*
X120797606Y-86661522D01*
X120782351Y-86657895D01*
X120731486Y-86652369D01*
X120724672Y-86652000D01*
X120598115Y-86652000D01*
X120582876Y-86656475D01*
X120581671Y-86657865D01*
X120580000Y-86665548D01*
X120580000Y-87241885D01*
X119080000Y-87241885D01*
X119080000Y-86670116D01*
X119075525Y-86654877D01*
X119074135Y-86653672D01*
X119066452Y-86652001D01*
X118935331Y-86652001D01*
X118928510Y-86652371D01*
X118877648Y-86657895D01*
X118862396Y-86661521D01*
X118741946Y-86706676D01*
X118726351Y-86715214D01*
X118624276Y-86791715D01*
X118611715Y-86804276D01*
X118535214Y-86906351D01*
X118526676Y-86921946D01*
X118481522Y-87042394D01*
X118477895Y-87057649D01*
X118472369Y-87108514D01*
X118472000Y-87115328D01*
X118472000Y-87241885D01*
X101187999Y-87241885D01*
X101187999Y-87115331D01*
X101187629Y-87108510D01*
X101182105Y-87057648D01*
X101178479Y-87042396D01*
X101133324Y-86921946D01*
X101124786Y-86906351D01*
X101048285Y-86804276D01*
X101035724Y-86791715D01*
X100933649Y-86715214D01*
X100918054Y-86706676D01*
X100797606Y-86661522D01*
X100782351Y-86657895D01*
X100731486Y-86652369D01*
X100724672Y-86652000D01*
X100598115Y-86652000D01*
X100582876Y-86656475D01*
X100581671Y-86657865D01*
X100580000Y-86665548D01*
X100580000Y-87241885D01*
X99080000Y-87241885D01*
X99080000Y-86670116D01*
X99075525Y-86654877D01*
X99074135Y-86653672D01*
X99066452Y-86652001D01*
X98935331Y-86652001D01*
X98928510Y-86652371D01*
X98877648Y-86657895D01*
X98862396Y-86661521D01*
X98741946Y-86706676D01*
X98726351Y-86715214D01*
X98624276Y-86791715D01*
X98611715Y-86804276D01*
X98535214Y-86906351D01*
X98526676Y-86921946D01*
X98481522Y-87042394D01*
X98477895Y-87057649D01*
X98472369Y-87108514D01*
X98472000Y-87115328D01*
X98472000Y-87241885D01*
X95338000Y-87241885D01*
X95338000Y-86759327D01*
X95339500Y-86739943D01*
X95341805Y-86725142D01*
X95341805Y-86725138D01*
X95343186Y-86716269D01*
X95342022Y-86707367D01*
X95342022Y-86707363D01*
X95342009Y-86707267D01*
X95341738Y-86676830D01*
X95348746Y-86614625D01*
X95355025Y-86587115D01*
X95382034Y-86509929D01*
X95394276Y-86484509D01*
X95437787Y-86415262D01*
X95455379Y-86393203D01*
X95513203Y-86335379D01*
X95535262Y-86317787D01*
X95604509Y-86274276D01*
X95629930Y-86262034D01*
X95707117Y-86235025D01*
X95734624Y-86228746D01*
X95758572Y-86226048D01*
X95790256Y-86222478D01*
X95805897Y-86221695D01*
X95814855Y-86221804D01*
X95823729Y-86223186D01*
X95855251Y-86219064D01*
X95871588Y-86218000D01*
X262880673Y-86218000D01*
X262900057Y-86219500D01*
G37*
%TD.AperFunction*%
%TD*%
%TA.AperFunction,NonConductor*%
G36*
X244748196Y-91578502D02*
G01*
X244769170Y-91595405D01*
X245005197Y-91831432D01*
X245039223Y-91893744D01*
X245034158Y-91964559D01*
X244991611Y-92021395D01*
X244927084Y-92046047D01*
X244743587Y-92062101D01*
X244701348Y-92074373D01*
X244694037Y-92076497D01*
X244658883Y-92081500D01*
X240788799Y-92081500D01*
X240720678Y-92061498D01*
X240710707Y-92054382D01*
X240588414Y-91957800D01*
X240588410Y-91957798D01*
X240584359Y-91954598D01*
X240543053Y-91931796D01*
X240493084Y-91881364D01*
X240478312Y-91811921D01*
X240503428Y-91745516D01*
X240530780Y-91718909D01*
X240705651Y-91594175D01*
X240709860Y-91591173D01*
X240712886Y-91588157D01*
X240777588Y-91559570D01*
X240793976Y-91558500D01*
X244680075Y-91558500D01*
X244748196Y-91578502D01*
G37*
%TD.AperFunction*%
%TA.AperFunction,NonConductor*%
G36*
X118940514Y-91578502D02*
G01*
X118952877Y-91587555D01*
X119048126Y-91666632D01*
X119118595Y-91707811D01*
X119121445Y-91709476D01*
X119170169Y-91761114D01*
X119183240Y-91830897D01*
X119156509Y-91896669D01*
X119116055Y-91930027D01*
X119103607Y-91936507D01*
X119099474Y-91939610D01*
X119099471Y-91939612D01*
X118929100Y-92067530D01*
X118924965Y-92070635D01*
X118770629Y-92232138D01*
X118644743Y-92416680D01*
X118550688Y-92619305D01*
X118490989Y-92834570D01*
X118467251Y-93056695D01*
X118467548Y-93061848D01*
X118467548Y-93061851D01*
X118473011Y-93156590D01*
X118480110Y-93279715D01*
X118481247Y-93284761D01*
X118481248Y-93284767D01*
X118501119Y-93372939D01*
X118529222Y-93497639D01*
X118613266Y-93704616D01*
X118615965Y-93709020D01*
X118694021Y-93836396D01*
X118729987Y-93895088D01*
X118876250Y-94063938D01*
X119048126Y-94206632D01*
X119118595Y-94247811D01*
X119121445Y-94249476D01*
X119170169Y-94301114D01*
X119183240Y-94370897D01*
X119156509Y-94436669D01*
X119116055Y-94470027D01*
X119103607Y-94476507D01*
X119099474Y-94479610D01*
X119099471Y-94479612D01*
X118944111Y-94596260D01*
X118877626Y-94621166D01*
X118868458Y-94621500D01*
X100788799Y-94621500D01*
X100720678Y-94601498D01*
X100710707Y-94594382D01*
X100588414Y-94497800D01*
X100588410Y-94497798D01*
X100584359Y-94494598D01*
X100543053Y-94471796D01*
X100493084Y-94421364D01*
X100478312Y-94351921D01*
X100503428Y-94285516D01*
X100530780Y-94258909D01*
X100574603Y-94227650D01*
X100709860Y-94131173D01*
X100722576Y-94118502D01*
X100818219Y-94023192D01*
X100868096Y-93973489D01*
X100892160Y-93940001D01*
X100995435Y-93796277D01*
X100998453Y-93792077D01*
X101009778Y-93769164D01*
X101095136Y-93596453D01*
X101095137Y-93596451D01*
X101097430Y-93591811D01*
X101162370Y-93378069D01*
X101191529Y-93156590D01*
X101193156Y-93090000D01*
X101174852Y-92867361D01*
X101120431Y-92650702D01*
X101031354Y-92445840D01*
X100910014Y-92258277D01*
X100759670Y-92093051D01*
X100755619Y-92089852D01*
X100755615Y-92089848D01*
X100588414Y-91957800D01*
X100588410Y-91957798D01*
X100584359Y-91954598D01*
X100543053Y-91931796D01*
X100493084Y-91881364D01*
X100478312Y-91811921D01*
X100503428Y-91745516D01*
X100530780Y-91718909D01*
X100705651Y-91594175D01*
X100709860Y-91591173D01*
X100712886Y-91588157D01*
X100777588Y-91559570D01*
X100793976Y-91558500D01*
X118872393Y-91558500D01*
X118940514Y-91578502D01*
G37*
%TD.AperFunction*%
%TA.AperFunction,NonConductor*%
G36*
X238940514Y-91578502D02*
G01*
X238952877Y-91587555D01*
X239048126Y-91666632D01*
X239118595Y-91707811D01*
X239121445Y-91709476D01*
X239170169Y-91761114D01*
X239183240Y-91830897D01*
X239156509Y-91896669D01*
X239116055Y-91930027D01*
X239103607Y-91936507D01*
X239099474Y-91939610D01*
X239099471Y-91939612D01*
X238929100Y-92067530D01*
X238924965Y-92070635D01*
X238770629Y-92232138D01*
X238644743Y-92416680D01*
X238550688Y-92619305D01*
X238490989Y-92834570D01*
X238467251Y-93056695D01*
X238467548Y-93061848D01*
X238467548Y-93061851D01*
X238473011Y-93156590D01*
X238480110Y-93279715D01*
X238481247Y-93284761D01*
X238481248Y-93284767D01*
X238501119Y-93372939D01*
X238529222Y-93497639D01*
X238613266Y-93704616D01*
X238615965Y-93709020D01*
X238694021Y-93836396D01*
X238729987Y-93895088D01*
X238876250Y-94063938D01*
X239048126Y-94206632D01*
X239118595Y-94247811D01*
X239121445Y-94249476D01*
X239170169Y-94301114D01*
X239183240Y-94370897D01*
X239156509Y-94436669D01*
X239116055Y-94470027D01*
X239103607Y-94476507D01*
X239099474Y-94479610D01*
X239099471Y-94479612D01*
X238944111Y-94596260D01*
X238877626Y-94621166D01*
X238868458Y-94621500D01*
X120788799Y-94621500D01*
X120720678Y-94601498D01*
X120710707Y-94594382D01*
X120588414Y-94497800D01*
X120588410Y-94497798D01*
X120584359Y-94494598D01*
X120543053Y-94471796D01*
X120493084Y-94421364D01*
X120478312Y-94351921D01*
X120503428Y-94285516D01*
X120530780Y-94258909D01*
X120574603Y-94227650D01*
X120709860Y-94131173D01*
X120722576Y-94118502D01*
X120818219Y-94023192D01*
X120868096Y-93973489D01*
X120892160Y-93940001D01*
X120995435Y-93796277D01*
X120998453Y-93792077D01*
X121009778Y-93769164D01*
X121095136Y-93596453D01*
X121095137Y-93596451D01*
X121097430Y-93591811D01*
X121162370Y-93378069D01*
X121191529Y-93156590D01*
X121193156Y-93090000D01*
X121174852Y-92867361D01*
X121120431Y-92650702D01*
X121031354Y-92445840D01*
X120910014Y-92258277D01*
X120759670Y-92093051D01*
X120755619Y-92089852D01*
X120755615Y-92089848D01*
X120588414Y-91957800D01*
X120588410Y-91957798D01*
X120584359Y-91954598D01*
X120543053Y-91931796D01*
X120493084Y-91881364D01*
X120478312Y-91811921D01*
X120503428Y-91745516D01*
X120530780Y-91718909D01*
X120705651Y-91594175D01*
X120709860Y-91591173D01*
X120712886Y-91588157D01*
X120777588Y-91559570D01*
X120793976Y-91558500D01*
X238872393Y-91558500D01*
X238940514Y-91578502D01*
G37*
%TD.AperFunction*%
M02*
