%TF.GenerationSoftware,KiCad,Pcbnew,(6.0.0)*%
%TF.CreationDate,2022-11-08T22:36:27+01:00*%
%TF.ProjectId,2-way,322d7761-792e-46b6-9963-61645f706362,rev?*%
%TF.SameCoordinates,Original*%
%TF.FileFunction,Legend,Top*%
%TF.FilePolarity,Positive*%
%FSLAX46Y46*%
G04 Gerber Fmt 4.6, Leading zero omitted, Abs format (unit mm)*
G04 Created by KiCad (PCBNEW (6.0.0)) date 2022-11-08 22:36:27*
%MOMM*%
%LPD*%
G01*
G04 APERTURE LIST*
%ADD10C,0.150000*%
%ADD11C,0.120000*%
G04 APERTURE END LIST*
D10*
X237382380Y-95329047D02*
X237382380Y-95900476D01*
X237382380Y-95614761D02*
X236382380Y-95614761D01*
X236525238Y-95710000D01*
X236620476Y-95805238D01*
X236668095Y-95900476D01*
X236477619Y-94948095D02*
X236430000Y-94900476D01*
X236382380Y-94805238D01*
X236382380Y-94567142D01*
X236430000Y-94471904D01*
X236477619Y-94424285D01*
X236572857Y-94376666D01*
X236668095Y-94376666D01*
X236810952Y-94424285D01*
X237382380Y-94995714D01*
X237382380Y-94376666D01*
X236382380Y-93757619D02*
X236382380Y-93662380D01*
X236430000Y-93567142D01*
X236477619Y-93519523D01*
X236572857Y-93471904D01*
X236763333Y-93424285D01*
X237001428Y-93424285D01*
X237191904Y-93471904D01*
X237287142Y-93519523D01*
X237334761Y-93567142D01*
X237382380Y-93662380D01*
X237382380Y-93757619D01*
X237334761Y-93852857D01*
X237287142Y-93900476D01*
X237191904Y-93948095D01*
X237001428Y-93995714D01*
X236763333Y-93995714D01*
X236572857Y-93948095D01*
X236477619Y-93900476D01*
X236430000Y-93852857D01*
X236382380Y-93757619D01*
X236334761Y-92281428D02*
X237620476Y-93138571D01*
X237382380Y-91424285D02*
X237382380Y-91995714D01*
X237382380Y-91710000D02*
X236382380Y-91710000D01*
X236525238Y-91805238D01*
X236620476Y-91900476D01*
X236668095Y-91995714D01*
X236715714Y-90567142D02*
X237382380Y-90567142D01*
X236334761Y-90805238D02*
X237049047Y-91043333D01*
X237049047Y-90424285D01*
X236382380Y-89852857D02*
X236382380Y-89757619D01*
X236430000Y-89662380D01*
X236477619Y-89614761D01*
X236572857Y-89567142D01*
X236763333Y-89519523D01*
X237001428Y-89519523D01*
X237191904Y-89567142D01*
X237287142Y-89614761D01*
X237334761Y-89662380D01*
X237382380Y-89757619D01*
X237382380Y-89852857D01*
X237334761Y-89948095D01*
X237287142Y-89995714D01*
X237191904Y-90043333D01*
X237001428Y-90090952D01*
X236763333Y-90090952D01*
X236572857Y-90043333D01*
X236477619Y-89995714D01*
X236430000Y-89948095D01*
X236382380Y-89852857D01*
X123382380Y-93376666D02*
X123382380Y-93948095D01*
X123382380Y-93662380D02*
X122382380Y-93662380D01*
X122525238Y-93757619D01*
X122620476Y-93852857D01*
X122668095Y-93948095D01*
X122477619Y-92995714D02*
X122430000Y-92948095D01*
X122382380Y-92852857D01*
X122382380Y-92614761D01*
X122430000Y-92519523D01*
X122477619Y-92471904D01*
X122572857Y-92424285D01*
X122668095Y-92424285D01*
X122810952Y-92471904D01*
X123382380Y-93043333D01*
X123382380Y-92424285D01*
X122382380Y-91805238D02*
X122382380Y-91710000D01*
X122430000Y-91614761D01*
X122477619Y-91567142D01*
X122572857Y-91519523D01*
X122763333Y-91471904D01*
X123001428Y-91471904D01*
X123191904Y-91519523D01*
X123287142Y-91567142D01*
X123334761Y-91614761D01*
X123382380Y-91710000D01*
X123382380Y-91805238D01*
X123334761Y-91900476D01*
X123287142Y-91948095D01*
X123191904Y-91995714D01*
X123001428Y-92043333D01*
X122763333Y-92043333D01*
X122572857Y-91995714D01*
X122477619Y-91948095D01*
X122430000Y-91900476D01*
X122382380Y-91805238D01*
X103382380Y-93376666D02*
X103382380Y-93948095D01*
X103382380Y-93662380D02*
X102382380Y-93662380D01*
X102525238Y-93757619D01*
X102620476Y-93852857D01*
X102668095Y-93948095D01*
X102715714Y-92519523D02*
X103382380Y-92519523D01*
X102334761Y-92757619D02*
X103049047Y-92995714D01*
X103049047Y-92376666D01*
X102382380Y-91805238D02*
X102382380Y-91710000D01*
X102430000Y-91614761D01*
X102477619Y-91567142D01*
X102572857Y-91519523D01*
X102763333Y-91471904D01*
X103001428Y-91471904D01*
X103191904Y-91519523D01*
X103287142Y-91567142D01*
X103334761Y-91614761D01*
X103382380Y-91710000D01*
X103382380Y-91805238D01*
X103334761Y-91900476D01*
X103287142Y-91948095D01*
X103191904Y-91995714D01*
X103001428Y-92043333D01*
X102763333Y-92043333D01*
X102572857Y-91995714D01*
X102477619Y-91948095D01*
X102430000Y-91900476D01*
X102382380Y-91805238D01*
D11*
%TO.C,M4*%
X98500000Y-89280000D02*
X98500000Y-96960000D01*
X98500000Y-96960000D02*
X101160000Y-96960000D01*
X98500000Y-86680000D02*
X99830000Y-86680000D01*
X98500000Y-88010000D02*
X98500000Y-86680000D01*
X101160000Y-89280000D02*
X101160000Y-96960000D01*
X98500000Y-89280000D02*
X101160000Y-89280000D01*
%TO.C,M1*%
X253930000Y-87690000D02*
X259930000Y-87690000D01*
X251270000Y-94360000D02*
X253930000Y-94360000D01*
X250872929Y-93470000D02*
X251270000Y-93470000D01*
X253930000Y-87630000D02*
X259930000Y-87630000D01*
X253930000Y-87930000D02*
X259930000Y-87930000D01*
X250872929Y-90170000D02*
X251270000Y-90170000D01*
X253930000Y-92710000D02*
X259930000Y-92710000D01*
X253930000Y-88170000D02*
X259930000Y-88170000D01*
X259930000Y-87630000D02*
X259930000Y-88390000D01*
X259930000Y-90930000D02*
X253930000Y-90930000D01*
X248560000Y-88010000D02*
X248560000Y-86740000D01*
X251270000Y-91820000D02*
X253930000Y-91820000D01*
X250872929Y-90930000D02*
X251270000Y-90930000D01*
X253930000Y-87810000D02*
X259930000Y-87810000D01*
X250872929Y-95250000D02*
X251270000Y-95250000D01*
X250872929Y-96010000D02*
X251270000Y-96010000D01*
X259930000Y-92710000D02*
X259930000Y-93470000D01*
X251270000Y-96960000D02*
X253930000Y-96960000D01*
X259930000Y-95250000D02*
X259930000Y-96010000D01*
X259930000Y-93470000D02*
X253930000Y-93470000D01*
X253930000Y-90170000D02*
X259930000Y-90170000D01*
X253930000Y-86680000D02*
X251270000Y-86680000D01*
X251270000Y-86680000D02*
X251270000Y-96960000D01*
X253930000Y-88290000D02*
X259930000Y-88290000D01*
X253930000Y-88050000D02*
X259930000Y-88050000D01*
X259930000Y-96010000D02*
X253930000Y-96010000D01*
X259930000Y-88390000D02*
X253930000Y-88390000D01*
X251270000Y-89280000D02*
X253930000Y-89280000D01*
X253930000Y-96960000D02*
X253930000Y-86680000D01*
X259930000Y-90170000D02*
X259930000Y-90930000D01*
X248560000Y-86740000D02*
X249830000Y-86740000D01*
X250940000Y-88390000D02*
X251270000Y-88390000D01*
X253930000Y-95250000D02*
X259930000Y-95250000D01*
X250940000Y-87630000D02*
X251270000Y-87630000D01*
X250872929Y-92710000D02*
X251270000Y-92710000D01*
%TO.C,M2*%
X238500000Y-96960000D02*
X241160000Y-96960000D01*
X238500000Y-88010000D02*
X238500000Y-86680000D01*
X238500000Y-86680000D02*
X239830000Y-86680000D01*
X241160000Y-89280000D02*
X241160000Y-96960000D01*
X238500000Y-89280000D02*
X238500000Y-96960000D01*
X238500000Y-89280000D02*
X241160000Y-89280000D01*
%TO.C,M3*%
X118500000Y-89280000D02*
X121160000Y-89280000D01*
X121160000Y-89280000D02*
X121160000Y-96960000D01*
X118500000Y-96960000D02*
X121160000Y-96960000D01*
X118500000Y-89280000D02*
X118500000Y-96960000D01*
X118500000Y-86680000D02*
X119830000Y-86680000D01*
X118500000Y-88010000D02*
X118500000Y-86680000D01*
%TD*%
M02*
