M48
; DRILL file {KiCad (6.0.0)} date Tue Nov  8 22:36:20 2022
; FORMAT={-:-/ absolute / inch / decimal}
; #@! TF.CreationDate,2022-11-08T22:36:20+01:00
; #@! TF.GenerationSoftware,Kicad,Pcbnew,(6.0.0)
; #@! TF.FileFunction,Plated,1,2,PTH
FMAT,2
INCH
; #@! TA.AperFunction,Plated,PTH,ViaDrill
T1C0.0157
; #@! TA.AperFunction,Plated,PTH,ComponentDrill
T2C0.0394
%
G90
G05
T1
X3.7728Y-3.4138
X3.7728Y-3.4138
X3.7728Y-3.8154
X3.7728Y-3.8154
X9.6429Y-3.6637
X10.3516Y-3.4138
X10.3516Y-3.4138
X10.3516Y-3.8154
X10.3516Y-3.8154
T2
X3.9303Y-3.465
X3.9303Y-3.565
X3.9303Y-3.665
X3.9303Y-3.765
X4.7177Y-3.465
X4.7177Y-3.565
X4.7177Y-3.665
X4.7177Y-3.765
X9.4421Y-3.465
X9.4421Y-3.565
X9.4421Y-3.665
X9.4421Y-3.765
X9.8358Y-3.465
X9.8358Y-3.565
X9.8358Y-3.665
X9.8358Y-3.765
T0
M30
